<svg width="46" height="46" viewBox="0 0 46 46" fill="none" xmlns="http://www.w3.org/2000/svg">
<path d="M46 23C46 19.655 44.099 16.735 41.324 15.26C42.082 12.372 41.343 9.162 39.09 6.909C37.407 5.226 35.19 4.388 32.971 4.388C32.22 4.388 31.469 4.484 30.739 4.676C29.265 1.901 26.345 0 23 0C19.655 0 16.735 1.901 15.26 4.676C14.529 4.484 13.779 4.388 13.028 4.388C10.809 4.388 8.592 5.226 6.909 6.909C4.656 9.162 3.917 12.371 4.675 15.26C1.901 16.735 0 19.655 0 23C0 26.345 1.901 29.265 4.676 30.74C3.918 33.628 4.657 36.838 6.91 39.091C8.593 40.774 10.81 41.612 13.029 41.612C13.78 41.612 14.531 41.516 15.261 41.324C16.735 44.099 19.655 46 23 46C26.345 46 29.265 44.099 30.74 41.324C31.471 41.516 32.221 41.612 32.972 41.612C35.191 41.612 37.408 40.774 39.091 39.091C41.344 36.838 42.083 33.629 41.325 30.74C44.099 29.265 46 26.345 46 23ZM19.714 30.985L12.436 23.707L13.85 22.293L19.714 28.157L32.15 15.722L33.564 17.136L19.714 30.985Z" fill="#606571"/>
</svg>
