<svg width="27" height="27" viewBox="0 0 27 27" fill="none" xmlns="http://www.w3.org/2000/svg">
<path d="M15.693 0.178119C15.5458 0.189447 15.4008 0.209838 15.258 0.250619L5.03553 3.15062C3.88686 3.47687 3.20491 4.68445 3.53116 5.83312L8.31616 22.6531C8.32522 22.7098 8.34335 22.7641 8.37053 22.8162L9.05928 25.2631C9.38553 26.4118 10.5931 27.0756 11.7418 26.7494L21.9643 23.8494C23.113 23.5231 23.7949 22.3155 23.4687 21.1669L22.798 18.8106C22.8071 18.6747 22.7686 18.541 22.6893 18.43L17.9405 1.73687C17.6958 0.875932 16.9686 0.284604 16.128 0.178119C15.9876 0.159994 15.8403 0.166791 15.693 0.178119ZM15.7837 1.31999C16.2572 1.28374 16.699 1.58734 16.8349 2.06312L21.4568 18.3756L9.27678 21.8194L4.65491 5.50687C4.50085 4.96085 4.81577 4.41031 5.36178 4.25624L15.5843 1.35624C15.6523 1.33585 15.7157 1.32453 15.7837 1.31999ZM21.1487 5.18062C20.981 5.20781 20.8337 5.30976 20.7454 5.45703C20.6593 5.60203 20.6389 5.78101 20.6955 5.94187L23.5955 16.1644C23.6862 16.4748 24.0101 16.6537 24.3205 16.5631C24.6309 16.4725 24.8099 16.1485 24.7193 15.8381L21.8193 5.61562C21.7536 5.3596 21.5225 5.18062 21.2574 5.18062C21.2393 5.18062 21.2212 5.18062 21.203 5.18062C21.1849 5.18062 21.1668 5.18062 21.1487 5.18062ZM24.4293 7.01124C24.2616 7.03843 24.1144 7.14038 24.026 7.28765C23.9399 7.43265 23.9195 7.61163 23.9762 7.77249L25.4262 12.8837C25.5168 13.1941 25.8408 13.3731 26.1512 13.2825C26.4615 13.1919 26.6405 12.8679 26.5499 12.5575L25.0999 7.44624C25.0342 7.19023 24.8031 7.01124 24.538 7.01124C24.5199 7.01124 24.5018 7.01124 24.4837 7.01124C24.4655 7.01124 24.4474 7.01124 24.4293 7.01124ZM2.78803 10.4006C2.76991 10.4052 2.75178 10.4119 2.73366 10.4187C2.57053 10.4482 2.42553 10.5456 2.33944 10.6884C2.25335 10.8311 2.23069 11.0033 2.28053 11.1619L5.18053 21.3844C5.27116 21.6948 5.59514 21.8737 5.90553 21.7831C6.21592 21.6925 6.39491 21.3685 6.30428 21.0581L3.40428 10.8356C3.33858 10.5796 3.10749 10.4006 2.84241 10.4006C2.82428 10.4006 2.80616 10.4006 2.78803 10.4006ZM0.957409 13.6812C0.939284 13.6858 0.921159 13.6926 0.903034 13.6994C0.739909 13.7288 0.594909 13.8262 0.508816 13.969C0.422722 14.1117 0.400066 14.2839 0.449909 14.4425L1.89991 19.5537C1.99053 19.8641 2.31452 20.0431 2.62491 19.9525C2.9353 19.8619 3.11428 19.5379 3.02366 19.2275L1.57366 14.1162C1.50796 13.8602 1.27686 13.6812 1.01178 13.6812C0.993659 13.6812 0.975534 13.6812 0.957409 13.6812ZM21.783 19.4994L22.3449 21.4931C22.499 22.0391 22.184 22.5897 21.638 22.7437L11.4155 25.6437C10.8695 25.7978 10.319 25.4829 10.1649 24.9369L9.60303 22.9431L21.783 19.4994ZM16.0555 21.91C16.0034 21.9145 15.9445 21.9123 15.8924 21.9281C15.4687 22.0482 15.2286 22.5013 15.3487 22.925C15.4687 23.3487 15.9037 23.5888 16.3274 23.4687C16.7511 23.3487 16.9912 22.9137 16.8712 22.49C16.7669 22.1184 16.4248 21.8828 16.0555 21.91Z" fill="#606571"/>
</svg>
