<svg width="20" height="30" viewBox="0 0 20 30" fill="none" xmlns="http://www.w3.org/2000/svg">
<path d="M9.99998 0.719971C4.73879 0.719971 0.47998 4.97879 0.47998 10.24C0.47998 14.5975 2.76132 19.2525 5.00225 22.8638C7.24317 26.4751 9.48732 29.0475 9.48732 29.0475C9.55155 29.1211 9.63086 29.18 9.71988 29.2202C9.8089 29.2604 9.90552 29.2809 10.0032 29.2804C10.1009 29.2799 10.1973 29.2584 10.2859 29.2173C10.3745 29.1762 10.4532 29.1165 10.5166 29.0422C10.5166 29.0422 12.7593 26.4206 14.999 22.7854C17.2387 19.1502 19.52 14.5017 19.52 10.24C19.52 4.97879 15.2612 0.719971 9.99998 0.719971ZM9.99998 2.07997C14.5308 2.07997 18.16 5.70916 18.16 10.24C18.16 14.0023 16.0212 18.5334 13.8409 22.0722C12.0709 24.9452 10.5988 26.7788 9.996 27.5122C9.39004 26.7879 7.92293 24.9913 6.15771 22.1466C3.97864 18.6349 1.83998 14.1104 1.83998 10.24C1.83998 5.70916 5.46917 2.07997 9.99998 2.07997ZM9.99998 5.47997C7.38507 5.47997 5.23998 7.62506 5.23998 10.24C5.23998 12.8549 7.38507 15 9.99998 15C12.6149 15 14.76 12.8549 14.76 10.24C14.76 7.62506 12.6149 5.47997 9.99998 5.47997ZM9.99998 6.83997C11.8731 6.83997 13.4 8.36688 13.4 10.24C13.4 12.1131 11.8731 13.64 9.99998 13.64C8.12689 13.64 6.59998 12.1131 6.59998 10.24C6.59998 8.36688 8.12689 6.83997 9.99998 6.83997Z" fill="#606571"/>
</svg>
