<svg width="29" height="27" viewBox="0 0 29 27" fill="none" xmlns="http://www.w3.org/2000/svg">
<path d="M26.3467 0.648447C25.9674 0.665178 25.6141 0.775641 25.3031 0.901377C25.0117 1.01858 23.8984 1.49607 22.1449 2.24806C20.3898 3.0007 18.0659 3.99842 15.5869 5.06446C10.629 7.19655 5.05491 9.59654 2.19987 10.8249C2.09251 10.8711 1.71791 10.9907 1.32031 11.3011C0.922717 11.6115 0.5 12.2547 0.5 12.9714C0.5 13.5493 0.775412 14.1234 1.12207 14.4662C1.46873 14.8089 1.83554 14.9783 2.14974 15.1065C3.28977 15.5716 6.82549 17.0185 7.49316 17.2917C7.72814 18.0115 9.00791 21.9263 9.30469 22.8858C9.50033 23.5189 9.68656 23.9154 9.92904 24.2302C10.0503 24.3875 10.1912 24.5254 10.362 24.6335C10.4302 24.6767 10.5051 24.7099 10.5807 24.7406L10.5853 24.7428C10.6027 24.7498 10.6177 24.7617 10.6354 24.7679C10.6688 24.7796 10.6911 24.781 10.7357 24.7907C10.9134 24.8481 11.0928 24.8841 11.2529 24.8841C11.9356 24.8841 12.3535 24.5081 12.3535 24.5081L12.3786 24.4899L15.89 21.4525L20.1488 25.4811C20.2087 25.5659 20.768 26.3333 22.0013 26.3333C22.7336 26.3333 23.3145 25.9659 23.6875 25.5746C24.0605 25.1832 24.2928 24.7721 24.3916 24.2552V24.2529C24.484 23.7645 28.4089 3.61524 28.4089 3.61524L28.402 3.64259C28.5169 3.11816 28.547 2.62976 28.4202 2.1478C28.2935 1.66584 27.9594 1.20438 27.5452 0.956064C27.1311 0.707802 26.7259 0.631716 26.3467 0.648447ZM26.1279 3.0866C26.1223 3.12065 26.1321 3.10353 26.1234 3.14356L26.1211 3.15724L26.1188 3.17091C26.1188 3.17091 22.2426 23.0624 22.0993 23.82C22.1098 23.7628 22.0618 23.8765 22.0127 23.9453C21.9432 23.8974 21.8008 23.8359 21.8008 23.8359L21.778 23.8109L15.9606 18.308L11.8477 21.8626L13.0713 16.9636C13.0713 16.9636 20.7202 9.0458 21.181 8.58497C21.552 8.2163 21.6299 8.08779 21.6299 7.96062C21.6299 7.79029 21.5411 7.66668 21.3428 7.66668C21.1643 7.66668 20.9242 7.84022 20.7959 7.92188C19.1239 8.98769 11.7838 13.2657 8.49349 15.1794C7.97061 14.9654 4.33794 13.4784 3.10677 12.9759C3.11609 12.9718 3.11302 12.9733 3.12272 12.9691C5.97851 11.7404 11.5502 9.34045 16.5075 7.20867C18.9861 6.14278 21.3118 5.14429 23.0654 4.39226C24.7921 3.65181 25.9918 3.14221 26.1279 3.0866Z" fill="#2C383F"/>
</svg>
