<svg width="26" height="27" viewBox="0 0 26 27" fill="none" xmlns="http://www.w3.org/2000/svg">
<path d="M5.72012 0C5.42767 0 5.12954 0.107144 4.9184 0.318281C4.70726 0.529418 4.60012 0.827556 4.60012 1.12V2.24H1.24012C0.947673 2.24 0.649535 2.34714 0.438398 2.55828C0.227261 2.76942 0.120117 3.06756 0.120117 3.36V7.84V25.76C0.120117 26.0524 0.227261 26.3506 0.438398 26.5617C0.649535 26.7729 0.947673 26.88 1.24012 26.88H24.7601C25.0526 26.88 25.3507 26.7729 25.5618 26.5617C25.773 26.3506 25.8801 26.0524 25.8801 25.76V7.84V3.36C25.8801 3.06756 25.773 2.76942 25.5618 2.55828C25.3507 2.34714 25.0526 2.24 24.7601 2.24H21.4001V1.12C21.4001 0.827556 21.293 0.529418 21.0818 0.318281C20.8707 0.107144 20.5726 0 20.2801 0H19.1601C18.8677 0 18.5695 0.107144 18.3584 0.318281C18.1473 0.529418 18.0401 0.827556 18.0401 1.12V2.24H7.96012V1.12C7.96012 0.827556 7.85297 0.529418 7.64184 0.318281C7.4307 0.107144 7.13256 0 6.84012 0H5.72012ZM5.72012 1.12H6.84012V4.48H5.72012V1.12ZM19.1601 1.12H20.2801V2.70594C20.2701 2.76641 20.2701 2.82812 20.2801 2.88859V4.48H19.1601V1.12ZM1.24012 3.36H4.60012V4.48C4.60012 4.77244 4.70726 5.07058 4.9184 5.28172C5.12954 5.49286 5.42767 5.6 5.72012 5.6H6.84012C7.13256 5.6 7.4307 5.49286 7.64184 5.28172C7.85297 5.07058 7.96012 4.77244 7.96012 4.48V3.36H18.0401V4.48C18.0401 4.77244 18.1473 5.07058 18.3584 5.28172C18.5695 5.49286 18.8677 5.6 19.1601 5.6H20.2801C20.5726 5.6 20.8707 5.49286 21.0818 5.28172C21.293 5.07058 21.4001 4.77244 21.4001 4.48V3.36H24.7601V7.28H1.24012V3.36ZM1.24012 8.4H24.7601V25.76H1.24012V8.4ZM9.07137 10.6323C9.0446 10.633 9.01792 10.6355 8.99152 10.64H5.16012C5.0116 10.64 4.86917 10.699 4.76415 10.804C4.65914 10.9091 4.60013 11.0515 4.60012 11.2V15.0259C4.59012 15.0864 4.59012 15.1481 4.60012 15.2086V18.9459C4.59012 19.0064 4.59012 19.0681 4.60012 19.1286V22.96C4.60013 23.1085 4.65914 23.2509 4.76415 23.356C4.86917 23.461 5.0116 23.52 5.16012 23.52H8.98605C9.04653 23.53 9.10823 23.53 9.16871 23.52H12.9061C12.9665 23.53 13.0282 23.53 13.0887 23.52H15.8001H16.8261C16.8865 23.53 16.9482 23.53 17.0087 23.52H20.8401C20.9886 23.52 21.1311 23.461 21.2361 23.356C21.3411 23.2509 21.4001 23.1085 21.4001 22.96V19.1341C21.4101 19.0736 21.4101 19.0119 21.4001 18.9514V15.2141C21.4101 15.1536 21.4101 15.0919 21.4001 15.0314V11.2C21.4001 11.0515 21.3411 10.9091 21.2361 10.804C21.1311 10.699 20.9886 10.64 20.8401 10.64H17.0142C16.9537 10.63 16.892 10.63 16.8315 10.64H13.0942C13.0337 10.63 12.972 10.63 12.9115 10.64H9.17418C9.14022 10.6343 9.1058 10.6317 9.07137 10.6323ZM5.72012 11.76H8.52012V14.56H5.72012V11.76ZM9.64012 11.76H12.4401V14.56H9.64012V11.76ZM13.5601 11.76H16.3601V14.56H13.5601V11.76ZM17.4801 11.76H20.2801V14.56H17.4801V11.76ZM5.72012 15.68H8.52012V18.48H5.72012V15.68ZM9.64012 15.68H12.4401V18.48H9.64012V15.68ZM13.5601 15.68H16.3601V18.48H13.5601V15.68ZM17.4801 15.68H20.2801V18.48H17.4801V15.68ZM5.72012 19.6H8.52012V22.4H5.72012V19.6ZM9.64012 19.6H12.4401V22.4H9.64012V19.6ZM13.5601 19.6H16.3601V22.4H15.8001H13.5601V19.6ZM17.4801 19.6H20.2801V22.4H17.4801V19.6Z" fill="#606571"/>
</svg>
