<svg width="73" height="73" fill="none" xmlns="http://www.w3.org/2000/svg"><path d="M62.005 2.931a6.91 6.91 0 00-4.905 2.02l-2.652 2.651a1.46 1.46 0 00-.131 1.91l-3.103 3.103c-6.325 6.325-11.6 8.241-16.898 10.01-5.293 1.767-10.7 3.381-16.254 8.942L4.665 44.957c-2.315 2.316-2.315 6.114 0 8.436l7.471 7.47 7.472 7.466c2.32 2.321 6.119 2.321 8.434 0l13.391-13.39c5.56-5.556 7.175-10.962 8.937-16.255 1.768-5.298 3.684-10.573 10.015-16.898l3.102-3.103a1.46 1.46 0 001.91-.13L68.05 15.9c2.697-2.697 2.697-7.111 0-9.809l-1.14-1.14a6.9 6.9 0 00-4.905-2.02zm0 2.898a4.052 4.052 0 012.845 1.186l1.135 1.14a3.996 3.996 0 010 5.68l-1.608 1.61-3.41-3.411a1.2 1.2 0 00-.132-.114L57.55 8.635l1.609-1.62a4.033 4.033 0 012.846-1.186zM36.5 5.84c-.804 0-1.46.656-1.46 1.46 0 .804.656 1.46 1.46 1.46.804 0 1.46-.656 1.46-1.46 0-.804-.656-1.46-1.46-1.46zm8.76 4.38c-.804 0-1.46.656-1.46 1.46 0 .804.656 1.46 1.46 1.46.804 0 1.46-.656 1.46-1.46 0-.804-.656-1.46-1.46-1.46zm11.11 1.369l5.041 5.041-3.096 3.091a42.64 42.64 0 00-5.247 6.348l-6.137-6.137a42.632 42.632 0 006.348-5.246l3.09-3.097zm-11.982 9.923l7.1 7.1c-1.249 2.213-2.161 4.34-2.914 6.382l-7.922-2.646-2.646-7.921c2.041-.753 4.169-1.666 6.382-2.915zM35.25 25.39l2.863 8.578c.143.433.485.775.918.918l8.578 2.863c-.006 0-.006.006-.006.006-1.785 5.36-3.13 10.02-8.23 15.124L25.984 66.27a3.036 3.036 0 01-4.312 0L6.73 51.328a3.036 3.036 0 010-4.311l13.39-13.391c5.105-5.099 9.764-6.445 15.125-8.23 0 0 .006 0 .006-.006zm28.99.89c-.805 0-1.46.656-1.46 1.46 0 .804.655 1.46 1.46 1.46.803 0 1.46-.656 1.46-1.46 0-.804-.657-1.46-1.46-1.46zm4.38 5.84c-.805 0-1.46.656-1.46 1.46 0 .804.655 1.46 1.46 1.46.803 0 1.46-.656 1.46-1.46 0-.804-.657-1.46-1.46-1.46zm-7.3 2.92c-.805 0-1.46.656-1.46 1.46 0 .804.655 1.46 1.46 1.46.803 0 1.46-.656 1.46-1.46 0-.804-.657-1.46-1.46-1.46zM33.58 36.5a2.918 2.918 0 00-2.92 2.92 2.918 2.918 0 002.92 2.92 2.918 2.918 0 002.92-2.92 2.918 2.918 0 00-2.92-2.92zm-11.236.827a1.48 1.48 0 00-1.015.428l-9.194 9.199c-.57.57-.57 1.5 0 2.07l11.84 11.84c.57.564 1.5.564 2.07 0l9.194-9.2a1.46 1.46 0 000-2.064L23.4 37.755a1.513 1.513 0 00-1.055-.428zm.017 3.53l9.781 9.775-7.135 7.13-9.775-9.77 7.13-7.135z" fill="url(#paint0_linear_51_1184)"/><defs><linearGradient id="paint0_linear_51_1184" x1="36.504" y1="2.931" x2="36.504" y2="70.07" gradientUnits="userSpaceOnUse"><stop stop-color="#ffc619"/><stop offset=".484" stop-color="#f69020"/><stop offset="1" stop-color="#ea422a"/></linearGradient></defs></svg>