<svg width="50" height="50" fill="none" xmlns="http://www.w3.org/2000/svg"><path d="M48 25c0-3.345-1.901-6.265-4.676-7.74.758-2.888.019-6.098-2.234-8.351a8.622 8.622 0 00-6.119-2.521c-.751 0-1.502.096-2.232.288C31.265 3.901 28.345 2 25 2c-3.345 0-6.265 1.901-7.74 4.676a8.784 8.784 0 00-2.232-.288 8.622 8.622 0 00-6.119 2.521c-2.253 2.253-2.992 5.462-2.234 8.351C3.901 18.735 2 21.655 2 25c0 3.345 1.901 6.265 4.676 7.74-.758 2.888-.019 6.098 2.234 8.351a8.622 8.622 0 006.119 2.521c.751 0 1.502-.096 2.232-.288C18.735 46.099 21.655 48 25 48c3.345 0 6.265-1.901 7.74-4.676a8.784 8.784 0 002.232.288 8.622 8.622 0 006.119-2.521c2.253-2.253 2.992-5.462 2.234-8.351C46.099 31.265 48 28.345 48 25zm-26.286 7.985l-7.278-7.278 1.414-1.414 5.864 5.864L34.15 17.722l1.414 1.414-13.85 13.849z" fill="#606571"/></svg>