<svg width="67" height="67" fill="none" xmlns="http://www.w3.org/2000/svg"><path d="M56.908 2.69a6.347 6.347 0 00-4.502 1.853l-2.434 2.434a1.34 1.34 0 00-.12 1.754l-2.847 2.847c-5.805 5.805-10.647 7.564-15.51 9.187-4.857 1.622-9.82 3.104-14.918 8.207L4.282 41.262c-2.126 2.126-2.126 5.612 0 7.742l6.857 6.857 6.857 6.852c2.13 2.13 5.616 2.13 7.741 0l12.29-12.29c5.104-5.099 6.585-10.06 8.203-14.918 1.623-4.863 3.381-9.705 9.192-15.51l2.847-2.847a1.34 1.34 0 001.754-.12l2.433-2.435c2.476-2.475 2.476-6.527 0-9.003L61.41 4.543a6.334 6.334 0 00-4.502-1.853zm0 2.66a3.724 3.724 0 012.612 1.088l1.042 1.047a3.668 3.668 0 010 5.214l-1.476 1.476-3.13-3.13a1.18 1.18 0 00-.121-.105L52.82 7.925l1.476-1.487a3.701 3.701 0 012.612-1.088zM33.5 5.36c-.738 0-1.34.602-1.34 1.34 0 .738.602 1.34 1.34 1.34.738 0 1.34-.602 1.34-1.34 0-.738-.602-1.34-1.34-1.34zm8.04 4.02c-.738 0-1.34.602-1.34 1.34 0 .738.602 1.34 1.34 1.34.738 0 1.34-.602 1.34-1.34 0-.738-.602-1.34-1.34-1.34zm10.197 1.256l4.627 4.627-2.843 2.838a39.13 39.13 0 00-4.815 5.825l-5.632-5.632a39.13 39.13 0 005.825-4.816l2.837-2.842zm-10.998 9.108l6.517 6.517c-1.147 2.03-1.984 3.983-2.675 5.857l-7.27-2.429-2.43-7.27c1.875-.691 3.827-1.529 5.858-2.675zm-8.385 3.56l2.627 7.872c.131.398.445.712.843.843l7.873 2.627c-.006 0-.006.006-.006.006-1.638 4.92-2.873 9.196-7.553 13.881l-12.29 12.29a2.786 2.786 0 01-3.957 0L6.175 47.11a2.787 2.787 0 010-3.957l12.29-12.29c4.685-4.68 8.962-5.915 13.882-7.553 0 0 .006 0 .006-.006zm26.606.816c-.738 0-1.34.602-1.34 1.34 0 .738.602 1.34 1.34 1.34.738 0 1.34-.602 1.34-1.34 0-.738-.602-1.34-1.34-1.34zm4.02 5.36c-.738 0-1.34.602-1.34 1.34 0 .738.602 1.34 1.34 1.34.738 0 1.34-.602 1.34-1.34 0-.738-.602-1.34-1.34-1.34zm-6.7 2.68c-.738 0-1.34.602-1.34 1.34 0 .738.602 1.34 1.34 1.34.738 0 1.34-.602 1.34-1.34 0-.738-.602-1.34-1.34-1.34zM30.82 33.5a2.678 2.678 0 00-2.68 2.68 2.678 2.678 0 002.68 2.68 2.678 2.678 0 002.68-2.68 2.678 2.678 0 00-2.68-2.68zm-10.312.759c-.35.005-.68.147-.931.393l-8.438 8.443a1.346 1.346 0 000 1.9L22.005 55.86a1.356 1.356 0 001.9 0l8.438-8.443a1.34 1.34 0 000-1.895l-10.867-10.87a1.388 1.388 0 00-.968-.393zm.016 3.24l8.977 8.972-6.548 6.543-8.972-8.967 6.543-6.548z" fill="url(#paint0_linear_51_977)"/><defs><linearGradient id="paint0_linear_51_977" x1="33.504" y1="2.69" x2="33.504" y2="64.311" gradientUnits="userSpaceOnUse"><stop stop-color="#ffc619"/><stop offset=".521" stop-color="#f69020"/><stop offset="1" stop-color="#ea422a"/></linearGradient></defs></svg>