<svg width="32" height="32" fill="none" xmlns="http://www.w3.org/2000/svg"><g clip-path="url(#clip0_51_1220)"><path d="M8.32 0A1.93 1.93 0 006.4 1.92v12.16h1.28V1.92c0-.361.28-.64.64-.64h21.76c.36 0 .64.279.64.64v28.16c0 .36-.28.64-.64.64H8.32c-.36 0-.64-.28-.64-.64V17.92H6.4v12.16A1.93 1.93 0 008.32 32h21.76A1.93 1.93 0 0032 30.08V1.92A1.93 1.93 0 0030.08 0H8.32zm5.788 8.384a.64.64 0 00-.445 1.098l5.876 5.878H.64a.64.64 0 100 1.28h18.9l-5.878 5.877a.64.64 0 10.905.905L21.99 16l-7.421-7.422a.64.64 0 00-.46-.194z" fill="url(#paint0_linear_51_1220)"/></g><defs><linearGradient id="paint0_linear_51_1220" x1="15.995" y1="0" x2="15.995" y2="32" gradientUnits="userSpaceOnUse"><stop stop-color="#ffc619"/><stop offset=".469" stop-color="#f69020"/><stop offset="1" stop-color="#ea422a"/></linearGradient><clipPath id="clip0_51_1220"><path d="M0 0h32v32H0z" fill="#fff"/></clipPath></defs></svg>