<svg width="70" height="70" fill="none" xmlns="http://www.w3.org/2000/svg"><path d="M47.6 1.313c-8.422 0-15.324 6.797-15.488 15.18-.809 1.275-11.544 18.195-19.993 26.645l.043.043c-.114.088-.525.328-.787 1.007-.3.776-.06 2.083.787 2.93l1.97 1.97-2.363 2.362c-2.418 2.417-3.495 5.157-3.413 7.744.082 2.587 1.242 4.96 3.019 6.65 3.55 3.38 9.75 4.162 14.35-.438L44.93 46.2c3.735-3.735 7.82-2.964 10.325-.525 1.252 1.22 2.062 2.871 2.1 4.638.038 1.766-.634 3.696-2.581 5.643l-8.881 8.882a1.485 1.485 0 002.1 2.1l8.837-8.882c2.417-2.417 3.511-5.19 3.456-7.787-.054-2.598-1.214-4.982-2.975-6.694a9.959 9.959 0 00-6.78-2.8c-2.588-.033-5.3.968-7.657 3.325L23.669 63.306c-3.588 3.588-7.7 2.811-10.238.394-1.269-1.209-2.089-2.855-2.144-4.594-.054-1.739.591-3.653 2.538-5.6l.131-.087 2.231-2.231 1.05 1.006c.837.837 1.991 1.154 2.8.918.706-.202.952-.667 1.05-.787l.088.087c8.236-8.24 25.451-19.304 26.731-20.124 8.39-.165 15.181-7.06 15.181-15.488 0-8.526-6.967-15.488-15.487-15.488zm0 2.974A12.485 12.485 0 0160.112 16.8c0 2.773-.891 5.327-2.406 7.394l-17.5-17.5A12.455 12.455 0 0147.6 4.287zm-9.538 4.42l17.675 17.63c-2.182 1.865-5.025 2.976-8.137 2.976A12.479 12.479 0 0135.087 16.8c0-3.1 1.121-5.912 2.975-8.094zm-5.38 12.162c1.448 5.288 5.637 9.477 10.937 10.893-5.704 3.763-17.588 11.84-24.325 18.55-.022-.027-.017-.016-.088-.087l-5.075-5.119c6.847-6.863 14.837-18.555 18.55-24.237zm-.22 9.275a1.69 1.69 0 00-1.18.481l-3.763 3.806a1.64 1.64 0 000 2.319l.13.131a1.64 1.64 0 002.32 0l3.806-3.806a1.645 1.645 0 000-2.319l-.175-.131a1.59 1.59 0 00-1.138-.481z" fill="url(#paint0_linear_51_971)"/><defs><linearGradient id="paint0_linear_51_971" x1="35.72" y1="1.313" x2="35.72" y2="68.618" gradientUnits="userSpaceOnUse"><stop stop-color="#ffc619"/><stop offset=".521" stop-color="#f69020"/><stop offset="1" stop-color="#ea422a"/></linearGradient></defs></svg>