<svg width="35" height="35" fill="none" xmlns="http://www.w3.org/2000/svg"><path d="M29.347 4.648a3.17 3.17 0 00-1.044.253 360.8 360.8 0 00-3.158 1.347c-1.755.753-4.08 1.75-6.558 2.816-4.958 2.133-10.532 4.533-13.387 5.76-.107.047-.482.167-.88.477-.397.31-.82.954-.82 1.67 0 .578.275 1.152.622 1.495.347.343.714.512 1.028.64l5.343 2.186c.235.72 1.515 4.634 1.812 5.594.195.633.382 1.03.624 1.344.121.157.262.295.433.404.068.043.143.076.219.107l.004.002c.018.007.033.019.05.025.034.012.056.013.1.023.178.057.358.093.518.093.683 0 1.1-.376 1.1-.376l.026-.018 3.511-3.037 4.259 4.028c.06.085.619.852 1.852.852.733 0 1.313-.367 1.686-.758.373-.392.606-.803.705-1.32v-.002c.092-.488 4.017-20.638 4.017-20.638l-.007.028c.115-.525.145-1.013.018-1.495-.127-.482-.46-.944-.875-1.192a2.097 2.097 0 00-1.198-.308zm-.22 2.439c-.005.034.005.017-.004.057l-.002.013-.002.014s-3.876 19.891-4.02 20.649c.01-.057-.037.056-.086.125a1.708 1.708 0 00-.212-.11l-.023-.024-5.817-5.503-4.113 3.555 1.223-4.9s7.65-7.917 8.11-8.378c.371-.369.449-.497.449-.624 0-.17-.089-.294-.287-.294-.179 0-.419.173-.547.255-1.672 1.066-9.012 5.344-12.303 7.257l-5.386-2.203.016-.007c2.856-1.229 8.427-3.629 13.384-5.76l6.558-2.817c1.727-.74 2.927-1.25 3.063-1.305z" fill="#2c383f"/></svg>