<svg width="19" height="19" fill="none" xmlns="http://www.w3.org/2000/svg"><path d="M1.9 1.9v4.94a.76.76 0 101.52 0V4.495l4.213 4.212a.76.76 0 101.074-1.074L4.495 3.42H6.84a.76.76 0 100-1.52H1.9zm10.26 0a.76.76 0 100 1.52h2.313L10.29 7.635a.76.76 0 101.08 1.07l4.21-4.242V6.84a.761.761 0 001.301.544.76.76 0 00.219-.544V1.9h-4.94zm-4.002 8.163a.76.76 0 00-.523.227L3.42 14.473V12.16a.76.76 0 10-1.52 0v4.94h4.94a.76.76 0 100-1.52H4.463l4.242-4.21a.76.76 0 00-.547-1.307zm2.664 0a.759.759 0 00-.53 1.304l4.213 4.213H12.16a.762.762 0 00-.712 1.053.761.761 0 00.712.467h4.94v-4.94a.76.76 0 10-1.52 0v2.345l-4.213-4.212a.76.76 0 00-.545-.23z" fill="#fff"/></svg>