<svg width="86" height="86" fill="none" xmlns="http://www.w3.org/2000/svg"><path d="M43 3.45C21.18 3.45 3.45 21.178 3.45 43c0 21.822 17.73 39.55 39.55 39.55 21.822 0 39.55-17.728 39.55-39.55C82.55 21.178 64.822 3.45 43 3.45zm0 3.42c4.453 0 8.712.809 12.648 2.278l-8.167 19.054a15.383 15.383 0 00-4.48-.672c-8.523 0-15.47 6.947-15.47 15.47 0 1.558.24 3.061.671 4.481L9.148 55.648A36.096 36.096 0 016.87 43C6.87 23.026 23.026 6.87 43 6.87zm15.78 3.658a36.156 36.156 0 0116.692 16.693L56.44 35.378a15.594 15.594 0 00-5.819-5.819l8.157-19.03zm18.073 19.824A36.095 36.095 0 0179.13 43c0 19.974-16.155 36.13-36.13 36.13-4.453 0-8.712-.809-12.648-2.278l8.167-19.054A15.38 15.38 0 0043 58.47c8.523 0 15.47-6.947 15.47-15.47 0-1.558-.24-3.061-.672-4.481l19.055-8.167zM43 30.95c6.675 0 12.05 5.375 12.05 12.05 0 6.675-5.375 12.05-12.05 12.05A12.024 12.024 0 0130.95 43c0-6.675 5.375-12.05 12.05-12.05zm0 6.89a5.16 5.16 0 100 10.32 5.16 5.16 0 000-10.32zM29.56 50.622a15.593 15.593 0 005.818 5.819L27.22 75.47a36.156 36.156 0 01-16.692-16.69l19.031-8.157z" fill="url(#paint0_linear_51_1144)"/><defs><linearGradient id="paint0_linear_51_1144" x1="43" y1="3.45" x2="43" y2="82.55" gradientUnits="userSpaceOnUse"><stop stop-color="#ffc619"/><stop offset=".5" stop-color="#f69020"/><stop offset="1" stop-color="#ea422a"/></linearGradient></defs></svg>