<svg width="86" height="86" fill="none" xmlns="http://www.w3.org/2000/svg"><path d="M43 3.44C21.187 3.44 3.44 21.187 3.44 43c0 21.813 17.747 39.56 39.56 39.56 21.813 0 39.56-17.747 39.56-39.56 0-7.907-2.34-15.274-6.353-21.463l-1.535 1.535-.98.981C77.11 29.57 79.12 36.046 79.12 43c0 19.917-16.203 36.12-36.12 36.12C23.082 79.12 6.88 62.917 6.88 43 6.88 23.082 23.082 6.88 43 6.88c8.45 0 16.203 2.954 22.36 7.837v3.49l-4.19 4.19c-4.85-4.29-11.2-6.917-18.17-6.917-15.174 0-27.52 12.346-27.52 27.52S27.826 70.52 43 70.52 70.52 58.174 70.52 43a27.357 27.357 0 00-4.767-15.456l-2.493 2.492c2.405 3.748 3.82 8.19 3.82 12.964 0 13.278-10.802 24.08-24.08 24.08-13.279 0-24.08-10.802-24.08-24.08 0-13.28 10.8-24.08 24.08-24.08 6.022 0 11.516 2.239 15.739 5.91l-6.101 6.1c-2.646-2.123-5.989-3.41-9.638-3.41-8.535 0-15.48 6.945-15.48 15.48S34.465 58.48 43 58.48 58.48 51.535 58.48 43c0-2.386-.559-4.636-1.525-6.655l-2.624 2.62c.45 1.263.709 2.62.709 4.035 0 6.64-5.4 12.04-12.04 12.04-6.64 0-12.04-5.4-12.04-12.04 0-6.64 5.4-12.04 12.04-12.04 2.7 0 5.186.905 7.196 2.412l-6.31 6.309A3.442 3.442 0 0043 39.56a3.44 3.44 0 103.322 2.55l21.47-21.47h4.448l8.6-8.6h-6.88V5.16l-6.662 6.662C60.587 6.578 52.158 3.44 43 3.44z" fill="url(#paint0_linear_51_1174)"/><defs><linearGradient id="paint0_linear_51_1174" x1="43" y1="3.44" x2="43" y2="82.56" gradientUnits="userSpaceOnUse"><stop stop-color="#ffc619"/><stop offset=".479" stop-color="#f69020"/><stop offset="1" stop-color="#ea422a"/></linearGradient></defs></svg>