<svg width="68" height="68" fill="none" xmlns="http://www.w3.org/2000/svg"><path d="M42.84 2.157l-.962.961-4.361 4.362 5.323 5.323 5.323-5.323-5.323-5.323zm-17 3.283a1.36 1.36 0 00-1.36 1.36v6.8a1.36 1.36 0 001.36 1.36h1.36c1.626 0 1.98.489 2.327 1.27.347.78.393 1.954.393 2.81 0 1.11-.135 2.278-.324 3.4-1.196-.421-2.343-.673-3.405-.68-1.201-.009-2.396.329-3.249 1.182-.364.364-.608.799-.797 1.26l-.024-.009L7.174 62.082l39.241-13.435-.008-.024c.504-.19.978-.452 1.37-.845 1.018-1.017 1.294-2.484 1.143-3.95-.095-.924-.363-1.9-.749-2.914a56.875 56.875 0 013.509-.114c1.939 0 3.773.235 4.965.648.595.207 1.015.46 1.219.654.204.193.215.249.215.398v1.02a1.36 1.36 0 001.36 1.36h5.84a1.36 1.36 0 001.36-1.4s-.04-1.676-.039-1.694v-.003c.025-3.088-1.92-5.48-4.319-6.952-2.4-1.47-5.311-2.191-7.91-2.191-4.302 0-7.501 1.116-9.643 2.22a39.877 39.877 0 00-2.23-2.76 34.27 34.27 0 011.452-.427c.958-.26 1.864-.472 2.569-.63.705-.157 1.094-.224 1.448-.323 1.097-.308 2.596-.684 3.939-1.58 1.342-.898 2.494-2.51 2.494-4.66 0-.588-.285-.916-.473-1.36h.473c2.907 0 5.44-2.348 5.44-5.44v-1.87s.01-.185.138-.393c.128-.208.23-.457 1.222-.457h1.36a1.36 1.36 0 001.36-1.36V8.163a1.36 1.36 0 00-1.36-1.36h-2.205c-3.614-.003-5.847 1.67-7.041 3.262-.886 1.18-1.159 2.637-1.368 3.888-.092.55-.074.608-.115 1.007h-.151c-2.342 0-4.178.849-5.294 2.189-1.116 1.34-1.506 3.024-1.506 4.611v1.846c-2.23.735-4.782 1.928-6.978 4.006-1.295-1.101-2.581-2.085-3.844-2.906 1.394-2.458 2.662-5.774 2.662-9.746 0-2.342-.776-4.707-2.401-6.518-1.625-1.812-4.115-3.002-7.22-3.002H25.84zm17 .563l1.477 1.477-1.477 1.477-1.477-1.477 1.477-1.477zM14.28 7.597l-.962.961-4.361 4.362 5.323 5.323 5.323-5.323-5.323-5.323zm12.92.582c2.372.027 3.992.85 5.095 2.08C33.415 11.506 34 13.221 34 14.96c0 2.832-.825 5.142-1.785 7.132.153-1.042.425-1.964.425-3.052 0-.856.046-2.404-.627-3.915-.672-1.511-2.359-2.885-4.813-2.885V8.179zm33.153 1.344h.847v2.717c-1.728 0-2.986.856-3.538 1.753-.552.897-.542 1.817-.542 1.817v1.87c0 1.668-1.207 2.72-2.72 2.72h-2.72a1.36 1.36 0 00-1.121 2.13l.114.144.019.021.037.04a5.693 5.693 0 01.5.65c.265.405.45.913.45 1.095 0 1.302-.46 1.846-1.285 2.396-.824.55-2.046.912-3.16 1.224.044-.012-.583.127-1.31.29a61.57 61.57 0 00-2.683.659c-1.558.422-3.109 1.099-4.547 1.82 2.277-2.835 5.404-4.376 7.912-5.08a1.36 1.36 0 00.994-1.309v-2.72c0-1.133.29-2.169.874-2.869.583-.7 1.468-1.211 3.206-1.211h1.36a1.36 1.36 0 001.357-1.288s.05-.906.231-1.99c.182-1.084.59-2.348.858-2.707h.003c.846-1.127 2.011-2.175 4.864-2.172zm-46.073 1.92l1.477 1.477-1.477 1.477-1.477-1.477 1.477-1.477zm47.6 11.677l-3.4 3.4 3.4 3.4 3.397-3.4-3.397-3.4zM8.84 24.48l-3.4 3.4 3.4 3.4 3.397-3.4-3.397-3.4zm17.33 0c.712.005 1.697.265 2.828.723-.389 1.484-.763 2.58-.879 2.93a1.36 1.36 0 002.183 1.452c.191-.166.525-.477 1.132-1.168.324-.37.702-.837 1.1-1.371a33.13 33.13 0 013.575 2.616c-.176.24-.36.468-.526.726l-2.725 4.236a1.36 1.36 0 001.915 1.854l4.09-2.823c.24-.166.554-.337.909-.508a38.53 38.53 0 012.64 3.15c-.434.335-.774.63-.84.694 0 0 0 .002-.002.003l-3.086 3.049a1.36 1.36 0 001.445 2.236s1.785-.677 5.405-1.115c.5 1.139.801 2.159.882 2.943.1.975-.093 1.48-.361 1.748a1.199 1.199 0 01-.444.26l-.138.048c-.241.063-.546.093-.95.069-.85-.05-2.018-.37-3.34-.97-2.644-1.2-5.896-3.497-8.962-6.563-3.066-3.067-5.363-6.318-6.564-8.962-.6-1.322-.918-2.493-.97-3.342-.024-.422.01-.74.078-.985.008-.029.02-.048.03-.075.068-.204.16-.36.27-.47.224-.223.59-.39 1.304-.385zm-3.48 5.684c.094.232.182.463.29.699 1.388 3.059 3.857 6.498 7.118 9.759 3.26 3.262 6.7 5.73 9.759 7.119.123.056.242.099.364.151l-28.356 9.709L22.69 30.164zm31.68 5.196c2.072 0 4.612.639 6.49 1.79 1.878 1.152 3.036 2.645 3.02 4.609-.001.105.005.235.008.401h-3.24c-.106-.774-.386-1.533-.912-2.032-.613-.582-1.368-.959-2.202-1.248-1.668-.58-3.713-.8-5.854-.8-3.5 0-5.895.359-7.971.699.311-.298 3.666-3.419 10.662-3.419zm-2.01 15.757l-.962.961-4.361 4.362 5.323 5.323 5.323-5.323-5.323-5.323zm0 3.846l1.477 1.477-1.477 1.477-1.477-1.477 1.477-1.477z" fill="url(#paint0_linear_51_989)"/><defs><linearGradient id="paint0_linear_51_989" x1="36.04" y1="2.157" x2="36.04" y2="62.082" gradientUnits="userSpaceOnUse"><stop stop-color="#ffc619"/><stop offset=".521" stop-color="#f69020"/><stop offset="1" stop-color="#ea422a"/></linearGradient></defs></svg>