<svg width="21" height="21" fill="none" xmlns="http://www.w3.org/2000/svg"><path d="M11.3 2.1c-3.724 0-5.107 2.878-4.042 5.316-.133.088-.346.365-.302.853.089.886.488 1.097.709 1.142.089.841.622 1.822.932 1.955 0 .576-.008 1.058-.053 1.68-.679 1.784-5.02 1.37-5.578 4.568-.024.14.12.446.407.446H17.64c.427 0 .418-.315.394-.46-.568-3.184-4.9-2.772-5.578-4.554a22.683 22.683 0 01-.053-1.68c.31-.133.804-1.158.893-1.955.221 0 .575-.268.708-1.155.045-.488-.137-.796-.315-.84.71-.886.581-4.515-2.034-4.515l-.354-.801zM6.367 4.2c-2.804.048-4.033 2.279-3.19 4.187-.09.044-.267.279-.223.682.09.719.358.893.538.893.089.672.486 1.427.709 1.562 0 .448.005.435-.04.971C3.797 13.643 0 13.558 0 16.38c0 0 0 .42.42.42h1.903c.642-1.815 2.386-2.514 3.701-3.032.726-.285 1.469-.574 1.694-.932.024-.39.037-.722.039-1.09-.399-.455-.696-1.166-.84-1.771-.341-.253-.71-.738-.8-1.64-.04-.429.05-.785.196-1.064-.333-1.035-.312-2.116.053-3.071zm9.594 0a8.68 8.68 0 00-1.326.105c.337.986.35 2.164.053 3.006.131.288.192.64.157 1.023l-.013.027v.026c-.124.825-.428 1.327-.787 1.601-.136.568-.414 1.285-.8 1.746 0 .36.014.685.039 1.102.224.358.97.647 1.693.932 1.314.517 3.058 1.217 3.7 3.032h1.904c.42 0 .42-.407.42-.407.002-3.248-3.595-2.479-4.134-3.964-.046-.495-.053-.45-.053-.945.225-.134.638-.89.683-1.522.18 0 .448-.186.538-.906.044-.36-.089-.625-.223-.67.541-.72.452-3.556-1.575-3.556l-.276-.63z" fill="#fff"/></svg>