<svg width="80" height="80" fill="none" xmlns="http://www.w3.org/2000/svg"><path d="M40 1.6c-5.55 0-8.981 1.231-9.9 1.6a1.622 1.622 0 00-.45.2h-.05a.746.746 0 00-.1.05 23.57 23.57 0 01-.05.05.752.752 0 00-.1.05l-.05.05a.855.855 0 00-.15.15.752.752 0 00-.05.1l-.05.05A.74.74 0 0029 4l-2.85 4.2-7.3 2.35c-.1.025-.206.056-.3.1-1.419.463-3.094 1.512-4.95 3.4-2.025 2.063-4.15 5.063-5.7 9.25-1.2 3.238-3.138 8.319-4.8 12.95-.831 2.319-1.594 4.487-2.15 6.35C.394 44.462 0 45.862 0 47.1v23.3c0 .881.719 1.6 1.6 1.6h11.2c.881 0 1.6-.719 1.6-1.6V48c.012-.075.056-.263.15-.5.15-.381.406-.875.7-1.45.581-1.156 1.394-2.594 2.2-3.95.075-.131.075-.119.15-.25V76.8c0 .881.719 1.6 1.6 1.6h41.6c.881 0 1.6-.719 1.6-1.6l-.1-31.85v-.05l.05-3.15c.106.175.094.169.2.35.806 1.356 1.619 2.794 2.2 3.95.294.575.55 1.069.7 1.45.112.288.144.525.15.55V70.4c0 .881.719 1.6 1.6 1.6h11.2c.881 0 1.6-.719 1.6-1.6V47.1c0-1.238-.394-2.638-.95-4.5-.556-1.863-1.319-4.031-2.15-6.35-1.663-4.631-3.6-9.712-4.8-12.95-1.55-4.188-3.675-7.188-5.7-9.25-1.875-1.906-3.569-2.95-5-3.4a1.736 1.736 0 00-.25-.1l-7.3-2.35-2.8-4.15a2.17 2.17 0 00-.1-.15.753.753 0 00-.1-.1v-.05a1.6 1.6 0 00-.55-.4s-.044-.05-.05-.05a1.692 1.692 0 00-.3-.1c-.838-.338-4.294-1.6-9.95-1.6zm0 3.2c3.881 0 6.356.569 7.7 1a12.956 12.956 0 01-1.25 3c-1.225 2.112-3.044 4-6.45 4s-5.225-1.888-6.45-4a12.956 12.956 0 01-1.25-3c1.344-.431 3.819-1 7.7-1zM29.95 8.4c.269.669.431 1.275.85 2 .981 1.694 2.525 3.512 4.7 4.6l-4.25 4.25-2.3-9.3 1-1.55zm20.1 0l1 1.55-2.3 9.3L44.5 15c2.175-1.088 3.719-2.906 4.7-4.6.419-.725.581-1.331.85-2zm-24 3.25l2.8 11.15a1.609 1.609 0 001.131 1.175 1.607 1.607 0 001.569-.425l7.65-7.65c.269.019.519.1.8.1s.531-.081.8-.1l7.65 7.65a1.607 1.607 0 001.569.425A1.609 1.609 0 0051.15 22.8l2.8-11.15 4.95 1.55c-.212 1.013-.706 3.219-1.05 7.45-.375 4.631-.325 10.294 1.1 15.25.012.05.031.1.05.15.006.013-.006.038 0 .05.025.156.075.306.15.45.025.081.025.169.05.25l-.1 8.1.1 30.3H20.8V37c2.294-4.337 2.212-10.331 1.7-15.5-.456-4.563-1.1-7.219-1.35-8.3l4.9-1.55zm-7.85 2.8a63.75 63.75 0 011.15 7.35c.438 4.406.331 9.488-.85 12.75a1.602 1.602 0 00-.5.6s-1.65 2.569-3.3 5.35c-.825 1.394-1.662 2.831-2.3 4.1-.319.637-.594 1.212-.8 1.75-.206.538-.4.956-.4 1.65v20.8h-8V47.1c0-.313.269-1.781.8-3.55s1.281-3.962 2.1-6.25c1.644-4.575 3.581-9.562 4.8-12.85 1.4-3.769 3.294-6.412 5-8.15.812-.825 1.638-1.406 2.3-1.85zm43.65 0c.656.438 1.45 1.038 2.25 1.85 1.706 1.738 3.6 4.381 5 8.15 1.219 3.288 3.156 8.275 4.8 12.85.819 2.288 1.569 4.481 2.1 6.25.531 1.769.8 3.238.8 3.55v21.7h-8V48c0-.694-.194-1.112-.4-1.65a20.272 20.272 0 00-.8-1.75c-.637-1.269-1.475-2.706-2.3-4.1-1.65-2.781-3.3-5.35-3.3-5.35a2.045 2.045 0 00-.15-.25c-1.181-4.281-1.156-9.612-.8-14 .231-2.819.531-4.925.8-6.45z" fill="url(#paint0_linear_51_1128)"/><defs><linearGradient id="paint0_linear_51_1128" x1="40" y1="1.6" x2="40" y2="78.4" gradientUnits="userSpaceOnUse"><stop stop-color="#ffc619"/><stop offset=".49" stop-color="#f69020"/><stop offset="1" stop-color="#ea422a"/></linearGradient></defs></svg>