<svg width="16" height="16" fill="none" xmlns="http://www.w3.org/2000/svg"><path d="M7.68.957C4.098.855 1.105 3.691 1.004 7.273c-.102 3.582 2.734 6.579 6.316 6.68A6.513 6.513 0 0014 7.633a6.421 6.421 0 00-.313-2.149l-.824.778c.098.433.149.882.137 1.347a5.51 5.51 0 01-5.652 5.344A5.513 5.513 0 012 7.301a5.513 5.513 0 015.652-5.348 5.47 5.47 0 012.707.813l.75-.711A6.485 6.485 0 007.68.957zm4.82 1.836l-6 6-1.648-1.645-.352-.355-.707.707.355.352L6.5 10.207 13.207 3.5l-.707-.707z" fill="#f69020"/></svg>