<svg width="68" height="68" fill="none" xmlns="http://www.w3.org/2000/svg"><g clip-path="url(#clip0_51_983)"><path d="M46.58 2.848l-.765 1.147-12.07 17.383-10.625 3.145-.043.042h-.042c-1.344.505-2.385 1.387-3.188 2.508l-.042.042v.043l-9.18 14.152-.34-1.105-8.925 2.678-1.275.424.382 1.276 6.12 20.527.383 1.317 1.317-.382 7.608-2.337 1.317-.383-.424-1.275-.765-2.592 10.667-2.38c3.278-.744 6.263-2.513 8.372-5.228l.51-.638 5.143 3.613 1.105.807.765-1.147 24.65-35.615.765-1.105-1.147-.808L47.685 3.655l-1.105-.807zm.68 3.782l16.958 11.815-9.733 14.068c1.248-3.98-.664-8.745-4.718-11.56-.01-.006.011-.038 0-.043-.01-.01-.031.01-.042 0-2.364-1.668-5.174-2.364-7.735-2.125a9.148 9.148 0 00-4.038 1.36L47.26 6.63zm5.695 8.075a2.3 2.3 0 00-1.913 1.02 2.28 2.28 0 00.596 3.188 2.33 2.33 0 003.23-.596 2.28 2.28 0 00-.596-3.187 2.424 2.424 0 00-1.317-.425zM42.33 21.462c1.88-.17 3.979.346 5.823 1.658l.042.043c3.852 2.65 4.999 7.145 3.06 9.945h-.043c-.977 1.508-2.608 2.326-4.632 2.422.069-1.557-.483-3.108-1.7-4.25-.01-.01-.032.01-.043 0-1.854-1.833-4.744-2.14-6.885-.723-1.296-2.332-1.391-4.866-.127-6.672.967-1.397 2.624-2.253 4.505-2.423zm-11.007 3.486L24.82 35.19l-.723 1.19 1.19.68 4.335 2.593.808.51.765-.638 6.885-5.567c.35-.112.638-.356.808-.68l.34-.255c1.083-.904 2.74-.83 3.74.17v.042h.042c1.116 1.02 1.217 2.614.255 3.867L32.937 50.15c-1.7 2.183-4.133 3.676-6.842 4.293l-10.837 2.422-3.825-12.835.425-.17.467-.17.255-.383 9.478-14.62c.536-.754 1.088-1.216 1.87-1.53.031-.01.053-.031.084-.042l7.31-2.167zm3.102.17c-.526 2.364.005 4.93 1.36 7.182l-5.567 4.547-2.338-1.402 6.545-10.328zm17.34 11.347L41.14 51.85l-3.91-2.763 8.16-10.285v-.042h.042c.128-.165.234-.335.34-.51 2.21.064 4.34-.505 5.993-1.785zM8.457 43.562l5.355 17.978-5.015 1.53-5.355-17.935 5.015-1.572z" fill="url(#paint0_linear_51_983)"/></g><defs><linearGradient id="paint0_linear_51_983" x1="34.042" y1="2.848" x2="34.042" y2="66.427" gradientUnits="userSpaceOnUse"><stop stop-color="#ffc619"/><stop offset=".521" stop-color="#f69020"/><stop offset="1" stop-color="#ea422a"/></linearGradient><clipPath id="clip0_51_983"><path d="M0 0h68v68H0z" fill="#fff"/></clipPath></defs></svg>