<svg width="80" height="80" fill="none" xmlns="http://www.w3.org/2000/svg"><path d="M72.1 3.9c-2.163-.094-4.188 1.344-4.75 3.5l-2.2 8.55-6 8.65-9.55 2.15c-1.619.369-3.1 1.206-4.2 2.45l-6.6 7.35a8.166 8.166 0 00-1.8 3.3l-2.25 8.5c-.613 2.281.725 4.669 3 5.3 2.25.625 4.625-.712 5.3-2.95l2.25-7.45 3.55-3.55c-.031.962.206 1.6 0 2.6a30.09 30.09 0 01-1.1 3.95l-6.2 11.95c-.338.65-.6 1.344-.75 2.05L38.55 71.1c-.619 2.938 1.65 5.8 4.65 5.8h.5c2.262 0 4.25-1.638 4.7-3.85l2.1-10.35 5.35-9.6 4.35 5.65 1.55 13.9a4.802 4.802 0 004.75 4.25c2.806 0 5.037-2.506 4.75-5.3l-1.5-14.8a8.067 8.067 0 00-.75-2.6l-4.55-9.6c.344-.95 2.05-6.063 1.45-11.8l7.5-12.65c.062-.112.112-.225.15-.35l2.85-9.95c.725-2.525-.8-5.163-3.35-5.8a5.007 5.007 0 00-.95-.15zm-41.3.5a4.355 4.355 0 00-1.75.4c-2.106.975-3.113 3.444-2.25 5.6l2.8 7.1-4.55 8.1-7.65 1.05-4.8-5.5.25-2.2c.287 3.7 3.381 6.65 7.15 6.65 3.956 0 7.2-3.244 7.2-7.2s-3.244-7.2-7.2-7.2c-3.188 0-5.913 2.113-6.85 5l.45-3.75c.294-2.5-1.638-4.769-4.15-4.9H9.1c-2.313-.119-4.356 1.594-4.6 3.9L3.35 22.2c-.163 1.512.281 2.988 1.2 4.2l7.75 10.25-2.8 6.2a15.438 15.438 0 00-1.3 8l2.25 21.5c.262 2.5 2.387 4.45 4.9 4.45 2.862 0 5.137-2.494 4.9-5.35l-1.6-19.25.2-.15 5 7L21.3 71c-.638 2.956 1.675 5.8 4.7 5.8 2.175 0 4.056-1.487 4.6-3.6L34 60.15c.4-1.55.2-3.181-.55-4.6L28.1 45.4 30.65 34l7.7-12.9c.831-1.394 1.006-3.094.4-4.6l-3.8-9.35A4.37 4.37 0 0032.5 4.7a4.357 4.357 0 00-1.7-.3zm40.85 2.7c.187-.025.4 0 .6.05.831.206 1.287 1.025 1.05 1.85l-2.85 9.9-7.5 12.65c-.2.313-.294.681-.25 1.05.75 5.35-1.45 11.6-1.45 11.6a1.58 1.58 0 00.05 1.25l4.8 10.1c.231.494.394 1.056.45 1.6l1.5 14.8c.1.956-.588 1.75-1.55 1.75-.819 0-1.456-.588-1.55-1.4L63.3 57.9a1.628 1.628 0 00-.3-.8l-6.05-7.85a1.601 1.601 0 00-2.7.15L47.6 61.3a1.468 1.468 0 00-.15.45l-2.2 10.65c-.15.744-.794 1.3-1.55 1.3h-.5c-1.038 0-1.763-.881-1.55-1.9l2.3-10.9a5.05 5.05 0 01.45-1.25l6.3-12.15c.037-.063.069-.131.1-.2 0 0 .712-1.944 1.2-4.35.487-2.406.95-5.219-.2-7.6a1.593 1.593 0 00-1.163-.875 1.603 1.603 0 00-1.387.425l-6.45 6.3a1.545 1.545 0 00-.4.7L40 49.8c-.181.606-.794.919-1.4.75-.613-.169-.919-.781-.75-1.4l2.25-8.5a4.707 4.707 0 011.05-1.95l6.65-7.35v-.05a4.71 4.71 0 012.5-1.45l10.15-2.3a1.603 1.603 0 001-.65l6.5-9.4c.119-.169.2-.35.25-.55l2.25-8.75a1.45 1.45 0 011.2-1.1zm-40.75.5c.475-.013.9.262 1.1.75l3.75 9.35a1.968 1.968 0 01-.15 1.75L27.75 32.6a1.62 1.62 0 00-.2.45l-2.75 12.2c-.081.375-.031.763.15 1.1l5.7 10.7a3.19 3.19 0 01.25 2.3L27.5 72.4c-.188.712-.763 1.2-1.5 1.2-1.056 0-1.825-.919-1.6-1.95l2.75-12.6a1.61 1.61 0 00-.25-1.25l-6.4-8.95a1.58 1.58 0 00-1.05-.644 1.581 1.581 0 00-1.2.294L16 50.25c-.425.337-.65.862-.6 1.4l1.7 20.05a1.74 1.74 0 01-1.75 1.9c-.9 0-1.656-.65-1.75-1.55L11.4 50.5c-.225-2.175.094-4.362 1-6.35l3.2-7.05a1.6 1.6 0 00-.15-1.6l-8.35-11a2.863 2.863 0 01-.55-2L7.7 11.8c.069-.644.556-1.081 1.2-1.05h.4c.712.037 1.181.644 1.1 1.35l-1.1 9.35a1.6 1.6 0 00.4 1.25l5.9 6.7a1.6 1.6 0 001.45.55l9.25-1.3a1.585 1.585 0 001.15-.8l5.35-9.5c.231-.413.269-.906.1-1.35l-3.1-7.8c-.244-.606.012-1.225.6-1.5.156-.075.344-.094.5-.1zM52 11.2c-3.956 0-7.2 3.244-7.2 7.2s3.244 7.2 7.2 7.2 7.2-3.244 7.2-7.2-3.244-7.2-7.2-7.2zm-32 3.2c2.225 0 4 1.775 4 4s-1.775 4-4 4a3.98 3.98 0 01-4-4c0-2.225 1.775-4 4-4zm32 0c2.225 0 4 1.775 4 4s-1.775 4-4 4a3.98 3.98 0 01-4-4c0-2.225 1.775-4 4-4z" fill="url(#paint0_linear_51_1154)"/><defs><linearGradient id="paint0_linear_51_1154" x1="39.949" y1="3.896" x2="39.949" y2="76.9" gradientUnits="userSpaceOnUse"><stop stop-color="#ffc619"/><stop offset=".49" stop-color="#f69020"/><stop offset="1" stop-color="#ea422a"/></linearGradient></defs></svg>