<svg width="293" height="67" fill="none" xmlns="http://www.w3.org/2000/svg"><path d="M30.917 31.864L42.992 9.29H36.7l-9.027 16.865L18.099 9.29h-6.385l12.863 22.656 3.244 5.708 11.807 20.649h6.386l-15.097-26.44z" fill="url(#paint0_linear_51_1030)"/><path d="M30.917 31.864L42.992 9.29H36.7l-9.027 16.865L18.099 9.29h-6.385l12.863 22.656 3.244 5.708 11.807 20.649h6.386l-15.097-26.44z" fill="url(#paint1_linear_51_1030)"/><path d="M65.402 9.29v12.295l8.193 18.463H59.33v5.524h16.6l5.393 12.732h6.033L65.402 9.291z" fill="url(#paint2_linear_51_1030)"/><path d="M65.402 9.29v12.295l8.193 18.463H59.33v5.524h16.6l5.393 12.732h6.033L65.402 9.291z" fill="url(#paint3_linear_51_1030)"/><path d="M266.43 9.29v12.295l8.193 18.463H260.36v5.524h16.598l5.394 12.732h6.033L266.43 9.291z" fill="url(#paint4_linear_51_1030)"/><path d="M266.43 9.29v12.295l8.193 18.463H260.36v5.524h16.598l5.394 12.732h6.033L266.43 9.291z" fill="url(#paint5_linear_51_1030)"/><path d="M142.612 9.29h-5.561v49.014h5.561V9.291z" fill="url(#paint6_linear_51_1030)"/><path d="M142.612 9.29h-5.561v49.014h5.561V9.291z" fill="url(#paint7_linear_51_1030)"/><path d="M142.612 9.29h-5.561v49.014h5.561V9.291z" fill="url(#paint8_linear_51_1030)"/><path d="M155.93 58.304h6.505l30.08-49.013h-36.104v5.523h26.222l-26.703 43.49z" fill="url(#paint9_linear_51_1030)"/><path d="M155.93 58.304h6.505l30.08-49.013h-36.104v5.523h26.222l-26.703 43.49z" fill="url(#paint10_linear_51_1030)"/><path d="M155.93 58.304h6.505l30.08-49.013h-36.104v5.523h26.222l-26.703 43.49z" fill="url(#paint11_linear_51_1030)"/><path d="M201.628 58.601l4.97-31.29 14.923 32.096 14.922-32.097 4.97 31.291h5.629l-8.007-50.413-17.514 37.76-17.515-37.76L196 58.6h5.628z" fill="url(#paint12_linear_51_1030)"/><path d="M201.628 58.601l4.97-31.29 14.923 32.096 14.922-32.097 4.97 31.291h5.629l-8.007-50.413-17.514 37.76-17.515-37.76L196 58.6h5.628z" fill="url(#paint13_linear_51_1030)"/><path d="M201.628 58.601l4.97-31.29 14.923 32.096 14.922-32.097 4.97 31.291h5.629l-8.007-50.413-17.514 37.76-17.515-37.76L196 58.6h5.628z" fill="url(#paint14_linear_51_1030)"/><path d="M106.552 31.202h-8.827l18.762 27.102h7.246l-14.795-21.372c6.595-1.129 11.629-6.851 11.629-13.72 0-7.677-6.287-13.921-14.015-13.921h-5.887v5.93h5.887c4.436 0 8.044 3.585 8.044 7.99 0 4.407-3.608 7.991-8.044 7.991z" fill="url(#paint15_linear_51_1030)"/><path d="M106.552 31.202h-8.827l18.762 27.102h7.246l-14.795-21.372c6.595-1.129 11.629-6.851 11.629-13.72 0-7.677-6.287-13.921-14.015-13.921h-5.887v5.93h5.887c4.436 0 8.044 3.585 8.044 7.99 0 4.407-3.608 7.991-8.044 7.991z" fill="url(#paint16_linear_51_1030)"/><path d="M106.552 31.202h-8.827l18.762 27.102h7.246l-14.795-21.372c6.595-1.129 11.629-6.851 11.629-13.72 0-7.677-6.287-13.921-14.015-13.921h-5.887v5.93h5.887c4.436 0 8.044 3.585 8.044 7.99 0 4.407-3.608 7.991-8.044 7.991z" fill="url(#paint17_linear_51_1030)"/><defs><linearGradient id="paint0_linear_51_1030" x1="11.714" y1="33.797" x2="288.385" y2="33.797" gradientUnits="userSpaceOnUse"><stop stop-color="#ea422a"/><stop offset=".095" stop-color="#ec5128"/><stop offset=".523" stop-color="#f69020"/><stop offset=".837" stop-color="#fdb71b"/><stop offset="1" stop-color="#ffc619"/></linearGradient><linearGradient id="paint1_linear_51_1030" x1="11.714" y1="33.797" x2="288.385" y2="33.797" gradientUnits="userSpaceOnUse"><stop stop-color="#ea422a"/><stop offset=".095" stop-color="#ec5128"/><stop offset=".523" stop-color="#f69020"/><stop offset=".837" stop-color="#fdb71b"/><stop offset="1" stop-color="#ffc619"/></linearGradient><linearGradient id="paint2_linear_51_1030" x1="11.713" y1="33.797" x2="288.385" y2="33.797" gradientUnits="userSpaceOnUse"><stop stop-color="#ea422a"/><stop offset=".095" stop-color="#ec5128"/><stop offset=".523" stop-color="#f69020"/><stop offset=".837" stop-color="#fdb71b"/><stop offset="1" stop-color="#ffc619"/></linearGradient><linearGradient id="paint3_linear_51_1030" x1="11.713" y1="33.797" x2="288.385" y2="33.797" gradientUnits="userSpaceOnUse"><stop stop-color="#ea422a"/><stop offset=".095" stop-color="#ec5128"/><stop offset=".523" stop-color="#f69020"/><stop offset=".837" stop-color="#fdb71b"/><stop offset="1" stop-color="#ffc619"/></linearGradient><linearGradient id="paint4_linear_51_1030" x1="11.714" y1="33.797" x2="288.385" y2="33.797" gradientUnits="userSpaceOnUse"><stop stop-color="#ea422a"/><stop offset=".095" stop-color="#ec5128"/><stop offset=".523" stop-color="#f69020"/><stop offset=".837" stop-color="#fdb71b"/><stop offset="1" stop-color="#ffc619"/></linearGradient><linearGradient id="paint5_linear_51_1030" x1="11.714" y1="33.797" x2="288.385" y2="33.797" gradientUnits="userSpaceOnUse"><stop stop-color="#ea422a"/><stop offset=".095" stop-color="#ec5128"/><stop offset=".523" stop-color="#f69020"/><stop offset=".837" stop-color="#fdb71b"/><stop offset="1" stop-color="#ffc619"/></linearGradient><linearGradient id="paint6_linear_51_1030" x1="11.713" y1="33.797" x2="288.386" y2="33.797" gradientUnits="userSpaceOnUse"><stop stop-color="#ea422a"/><stop offset=".095" stop-color="#ec5128"/><stop offset=".523" stop-color="#f69020"/><stop offset=".837" stop-color="#fdb71b"/><stop offset="1" stop-color="#ffc619"/></linearGradient><linearGradient id="paint7_linear_51_1030" x1="11.713" y1="33.797" x2="288.386" y2="33.797" gradientUnits="userSpaceOnUse"><stop stop-color="#ea422a"/><stop offset=".095" stop-color="#ec5128"/><stop offset=".523" stop-color="#f69020"/><stop offset=".837" stop-color="#fdb71b"/><stop offset="1" stop-color="#ffc619"/></linearGradient><linearGradient id="paint8_linear_51_1030" x1="11.713" y1="33.797" x2="288.386" y2="33.797" gradientUnits="userSpaceOnUse"><stop stop-color="#ea422a"/><stop offset=".095" stop-color="#ec5128"/><stop offset=".523" stop-color="#f69020"/><stop offset=".837" stop-color="#fdb71b"/><stop offset="1" stop-color="#ffc619"/></linearGradient><linearGradient id="paint9_linear_51_1030" x1="11.714" y1="33.797" x2="288.385" y2="33.797" gradientUnits="userSpaceOnUse"><stop stop-color="#ea422a"/><stop offset=".095" stop-color="#ec5128"/><stop offset=".523" stop-color="#f69020"/><stop offset=".837" stop-color="#fdb71b"/><stop offset="1" stop-color="#ffc619"/></linearGradient><linearGradient id="paint10_linear_51_1030" x1="11.714" y1="33.797" x2="288.385" y2="33.797" gradientUnits="userSpaceOnUse"><stop stop-color="#ea422a"/><stop offset=".095" stop-color="#ec5128"/><stop offset=".523" stop-color="#f69020"/><stop offset=".837" stop-color="#fdb71b"/><stop offset="1" stop-color="#ffc619"/></linearGradient><linearGradient id="paint11_linear_51_1030" x1="11.714" y1="33.797" x2="288.385" y2="33.797" gradientUnits="userSpaceOnUse"><stop stop-color="#ea422a"/><stop offset=".095" stop-color="#ec5128"/><stop offset=".523" stop-color="#f69020"/><stop offset=".837" stop-color="#fdb71b"/><stop offset="1" stop-color="#ffc619"/></linearGradient><linearGradient id="paint12_linear_51_1030" x1="11.714" y1="33.797" x2="288.385" y2="33.797" gradientUnits="userSpaceOnUse"><stop stop-color="#ea422a"/><stop offset=".095" stop-color="#ec5128"/><stop offset=".523" stop-color="#f69020"/><stop offset=".837" stop-color="#fdb71b"/><stop offset="1" stop-color="#ffc619"/></linearGradient><linearGradient id="paint13_linear_51_1030" x1="11.714" y1="33.797" x2="288.385" y2="33.797" gradientUnits="userSpaceOnUse"><stop stop-color="#ea422a"/><stop offset=".095" stop-color="#ec5128"/><stop offset=".523" stop-color="#f69020"/><stop offset=".837" stop-color="#fdb71b"/><stop offset="1" stop-color="#ffc619"/></linearGradient><linearGradient id="paint14_linear_51_1030" x1="11.714" y1="33.797" x2="288.385" y2="33.797" gradientUnits="userSpaceOnUse"><stop stop-color="#ea422a"/><stop offset=".095" stop-color="#ec5128"/><stop offset=".523" stop-color="#f69020"/><stop offset=".837" stop-color="#fdb71b"/><stop offset="1" stop-color="#ffc619"/></linearGradient><linearGradient id="paint15_linear_51_1030" x1="11.714" y1="33.797" x2="288.385" y2="33.797" gradientUnits="userSpaceOnUse"><stop stop-color="#ea422a"/><stop offset=".095" stop-color="#ec5128"/><stop offset=".523" stop-color="#f69020"/><stop offset=".837" stop-color="#fdb71b"/><stop offset="1" stop-color="#ffc619"/></linearGradient><linearGradient id="paint16_linear_51_1030" x1="11.714" y1="33.797" x2="288.385" y2="33.797" gradientUnits="userSpaceOnUse"><stop stop-color="#ea422a"/><stop offset=".095" stop-color="#ec5128"/><stop offset=".523" stop-color="#f69020"/><stop offset=".837" stop-color="#fdb71b"/><stop offset="1" stop-color="#ffc619"/></linearGradient><linearGradient id="paint17_linear_51_1030" x1="11.714" y1="33.797" x2="288.385" y2="33.797" gradientUnits="userSpaceOnUse"><stop stop-color="#ea422a"/><stop offset=".095" stop-color="#ec5128"/><stop offset=".523" stop-color="#f69020"/><stop offset=".837" stop-color="#fdb71b"/><stop offset="1" stop-color="#ffc619"/></linearGradient></defs></svg>