<svg width="34" height="34" fill="none" xmlns="http://www.w3.org/2000/svg"><path d="M17 2.72a9.516 9.516 0 00-9.52 9.52c0 4.357 2.281 9.013 4.522 12.624 2.241 3.611 4.485 6.183 4.485 6.183a.68.68 0 001.03-.005s2.242-2.621 4.482-6.257c2.24-3.635 4.521-8.283 4.521-12.545A9.516 9.516 0 0017 2.72zm0 1.36a8.13 8.13 0 018.16 8.16c0 3.762-2.139 8.293-4.32 11.832-1.77 2.873-3.241 4.707-3.844 5.44-.606-.724-2.073-2.52-3.838-5.365-2.18-3.512-4.318-8.037-4.318-11.907A8.13 8.13 0 0117 4.08zm0 3.4c-2.615 0-4.76 2.145-4.76 4.76 0 2.615 2.145 4.76 4.76 4.76 2.615 0 4.76-2.145 4.76-4.76 0-2.615-2.145-4.76-4.76-4.76zm0 1.36c1.873 0 3.4 1.527 3.4 3.4s-1.527 3.4-3.4 3.4a3.406 3.406 0 01-3.4-3.4c0-1.873 1.527-3.4 3.4-3.4z" fill="#606571"/></svg>