<svg width="29" height="29" fill="none" xmlns="http://www.w3.org/2000/svg"><path d="M16.693 1.178a2.183 2.183 0 00-.435.073L6.036 4.15A2.184 2.184 0 004.53 6.833l4.785 16.82c.01.057.027.111.055.163l.688 2.447a2.173 2.173 0 002.683 1.486l10.222-2.9a2.184 2.184 0 001.505-2.682l-.671-2.356a.586.586 0 00-.109-.381L18.941 2.737a2.163 2.163 0 00-1.813-1.559 2.146 2.146 0 00-.435 0zm.09 1.142c.474-.036.916.267 1.052.743l4.622 16.313-12.18 3.443L5.655 6.507a1.008 1.008 0 01.707-1.25l10.222-2.9a.88.88 0 01.2-.037zm5.366 3.86a.58.58 0 00-.454.762l2.9 10.222a.585.585 0 101.124-.326l-2.9-10.222a.58.58 0 00-.562-.435h-.108zm3.28 1.831a.58.58 0 00-.453.761l1.45 5.112a.585.585 0 101.124-.327l-1.45-5.11a.58.58 0 00-.562-.436h-.109zm-21.641 3.39a.525.525 0 00-.054.018.58.58 0 00-.453.743l2.9 10.222a.585.585 0 101.123-.326l-2.9-10.222a.58.58 0 00-.562-.435h-.054zm-1.83 3.28c-.019.005-.037.012-.055.018a.58.58 0 00-.453.744l1.45 5.11a.585.585 0 101.124-.326l-1.45-5.11a.58.58 0 00-.562-.436h-.055zM22.782 20.5l.562 1.994a1.008 1.008 0 01-.707 1.25l-10.223 2.9a1.008 1.008 0 01-1.25-.706l-.562-1.994 12.18-3.444zm-5.728 2.411c-.052.005-.11.002-.163.018a.807.807 0 00-.543.997c.12.424.555.664.978.544a.788.788 0 00.544-.979.787.787 0 00-.816-.58z" fill="#606571"/></svg>