<svg width="12" height="12" fill="none" xmlns="http://www.w3.org/2000/svg"><g clip-path="url(#clip0)" fill="#fff"><path d="M4.969 7.03C3.824 5.887 3.565 4.74 3.507 4.282a.411.411 0 01.118-.344l.927-.926a.414.414 0 00.058-.513L3.134.207a.414.414 0 00-.536-.151L.23 1.172a.412.412 0 00-.228.41C.126 2.763.64 5.663 3.49 8.51c2.849 2.85 5.747 3.364 6.927 3.488a.412.412 0 00.411-.228l1.116-2.37a.414.414 0 00-.15-.534L9.501 7.39a.414.414 0 00-.512.058l-.926.927a.411.411 0 01-.344.118c-.46-.058-1.605-.317-2.75-1.462z"/><path d="M9.517 6.414A.414.414 0 019.103 6 3.107 3.107 0 006 2.897a.414.414 0 010-.828A3.935 3.935 0 019.931 6a.414.414 0 01-.414.414z"/><path d="M11.586 6.414A.414.414 0 0111.172 6 5.178 5.178 0 006 .828.414.414 0 016 0a6.007 6.007 0 016 6 .414.414 0 01-.414.414z"/></g><defs><clipPath id="clip0"><path fill="#fff" d="M0 0h12v12H0z"/></clipPath></defs></svg>