<svg width="373" height="373" fill="none" xmlns="http://www.w3.org/2000/svg"><g filter="url(#filter0_d_51_997)"><circle cx="186" cy="169" r="122" fill="#ffc619" fill-opacity=".19" shape-rendering="crispEdges"/></g><g filter="url(#filter1_d_51_997)"><circle cx="186" cy="169" r="118.5" stroke="url(#paint0_angular_51_997)" stroke-opacity=".66" stroke-width="7" shape-rendering="crispEdges"/></g><g filter="url(#filter2_d_51_997)"><circle cx="186.5" cy="169.5" r="133.5" stroke="url(#paint1_angular_51_997)" stroke-opacity=".4" stroke-width="2" shape-rendering="crispEdges"/></g><g filter="url(#filter3_d_51_997)"><circle cx="186" cy="170" r="95" stroke="url(#paint2_angular_51_997)" stroke-opacity=".4" stroke-width="2" shape-rendering="crispEdges"/></g><path d="M133.674 140.192l-3.136 4.896-3.12-4.896h-3.28v11.2h3.6v-5.136l1.84 2.864h1.936l1.84-2.848v5.12h3.6v-11.2h-3.28zm4.823 7.36c0 2.768 2.016 4.096 4.416 4.096 2.4 0 4.432-1.328 4.432-4.096s-2.032-4.096-4.432-4.096c-2.4 0-4.416 1.328-4.416 4.096zm5.552 0c0 .72-.288 1.312-1.136 1.312-.832 0-1.12-.592-1.12-1.312 0-.72.288-1.312 1.12-1.312.848 0 1.136.592 1.136 1.312zm17.397 3.84l-2-3.808 1.92-3.872h-3.504l-1.184 2.608h-.416v-2.608h-3.248v2.608h-.416l-1.184-2.608h-3.504l1.92 3.872-2 3.808h3.504l1.184-2.448h.496v2.448h3.248v-2.448h.496l1.184 2.448h3.504zm4.582 0v-2.544h1.552v2.544h3.376v-7.68h-3.376v2.544h-1.552v-2.544h-3.376v7.68h3.376zm6.393-3.84c0 2.768 2.016 4.096 4.416 4.096 2.4 0 4.432-1.328 4.432-4.096s-2.032-4.096-4.432-4.096c-2.4 0-4.416 1.328-4.416 4.096zm5.552 0c0 .72-.288 1.312-1.136 1.312-.832 0-1.12-.592-1.12-1.312 0-.72.288-1.312 1.12-1.312.848 0 1.136.592 1.136 1.312zm20.55 3.84v-7.68h-3.36v4.992h-1.152v-4.992h-3.376v4.992h-1.136v-4.992h-3.376v7.68h12.4zm6.151-3.472l-1.584-4.208h-3.488l3.52 7.728c-.32.624-.832.88-1.424.88-.416 0-.768-.064-1.136-.16v2.72c.544.16 1.072.272 1.68.272 1.568 0 3.184-.752 4.096-3.296l2.928-8.144h-3.424l-1.168 4.208zm8.84 3.472v-3.232l1.184 1.888h1.168l1.184-1.888v3.232h3.056v-7.68h-2.752l-2.08 3.296-2.064-3.296h-2.752v7.68h3.056zm8.057-3.888c0 2.96 2.368 4.144 4.832 4.144 1.2 0 2.048-.144 2.8-.4v-2.272c-.656.208-1.392.304-2.208.304-.992 0-1.92-.304-2.192-.96h4.736c.48-2.224-.384-4.864-3.84-4.864-1.712 0-4.128 1.04-4.128 4.048zm5.232-.736h-2.032c0-.624.432-1.088 1.104-1.088.784 0 1.008.64.928 1.088zm9.246 4.624V146.4h1.984v-2.688h-7.328v2.688h1.984v4.992h3.36zm8.229 0c2.176 0 3.264-1.264 3.264-2.864 0-1.6-1.088-2.848-3.264-2.848h-1.488v-1.968h-3.376v7.68h4.864zm-1.504-3.664h.56c.576 0 .88.304.88.768 0 .448-.304.752-.88.752h-.56v-1.52z" fill="#fff"/><path d="M91.384 187.619v-7h1.484l4.172 7h7.112l-6.076-9.884 5.964-9.716h-7.112l-3.92 6.944h-1.624v-6.944h-6.468v19.6h6.468zm18.467-11.816v-1.624h-5.18v19.6h5.908v-6.972c.812.728 2.044 1.26 3.668 1.26 4.284 0 6.16-3.472 6.16-7.168s-1.876-7.168-6.16-7.168c-2.016 0-3.5.952-4.396 2.072zm4.48 5.096c0 1.204-.616 2.436-2.044 2.436-.812 0-1.484-.476-1.736-.952v-2.968c.28-.476.924-.952 1.736-.952 1.428 0 2.044 1.232 2.044 2.436zm14.465.644l-2.772-7.364h-6.104l6.16 13.524c-.56 1.092-1.456 1.54-2.492 1.54-.728 0-1.344-.112-1.988-.28v4.76c.952.28 1.876.476 2.94.476 2.744 0 5.572-1.316 7.168-5.768l5.124-14.252h-5.992l-2.044 7.364zm14.911 6.076v-8.736h4.844v-4.704h-10.752v13.44h5.908zm11.895-8.848h1.596v8.848h5.908v-13.44h-12.6c-.252 4.704-.28 8.372-2.1 8.708-.336.056-.7.028-1.148-.084v4.76a9.15 9.15 0 002.716.42c3.836 0 5.096-3.416 5.628-9.212zm8.967 2.128c0 4.844 3.528 7.168 7.728 7.168 4.2 0 7.756-2.324 7.756-7.168s-3.556-7.168-7.756-7.168-7.728 2.324-7.728 7.168zm9.716 0c0 1.26-.504 2.296-1.988 2.296-1.456 0-1.96-1.036-1.96-2.296 0-1.26.504-2.296 1.96-2.296 1.484 0 1.988 1.036 1.988 2.296zm6.657.364c0 4.844 3.724 6.804 7.588 6.804 1.708 0 3.276-.28 4.676-.756v-4.816c-.84.392-2.044.672-3.332.672-1.512 0-2.856-.616-2.856-2.268 0-1.708 1.4-2.324 2.968-2.324 1.064 0 2.24.336 3.08.756v-4.844c-1.288-.504-2.716-.812-4.144-.812-4.004 0-7.98 2.156-7.98 7.588zm21.294.28l-2.772-7.364h-6.104l6.16 13.524c-.56 1.092-1.456 1.54-2.492 1.54-.728 0-1.344-.112-1.988-.28v4.76c.952.28 1.876.476 2.94.476 2.744 0 5.572-1.316 7.168-5.768l5.124-14.252h-5.992l-2.044 7.364zm17.626 6.076v-8.736h3.472v-4.704H210.51v4.704h3.472v8.736h5.88zm3.99-6.72c0 4.844 3.528 7.168 7.728 7.168 4.2 0 7.756-2.324 7.756-7.168s-3.556-7.168-7.756-7.168-7.728 2.324-7.728 7.168zm9.716 0c0 1.26-.504 2.296-1.988 2.296-1.456 0-1.96-1.036-1.96-2.296 0-1.26.504-2.296 1.96-2.296 1.484 0 1.988 1.036 1.988 2.296zm20.936 6.72v-13.44h-5.908v5.292c-.364.14-.784.224-1.204.224-.644 0-1.176-.28-1.176-1.064v-4.452h-5.908v5.208c0 3.584 2.744 5.012 5.236 5.012 1.148 0 2.156-.112 3.052-.42v3.64h5.908zm7.931 0v-4.452h2.716v4.452h5.908v-13.44h-5.908v4.452h-2.716v-4.452h-5.908v13.44h5.908zm10.069-6.72c0 4.844 3.528 7.168 7.728 7.168 4.2 0 7.756-2.324 7.756-7.168s-3.556-7.168-7.756-7.168-7.728 2.324-7.728 7.168zm9.716 0c0 1.26-.504 2.296-1.988 2.296-1.456 0-1.96-1.036-1.96-2.296 0-1.26.504-2.296 1.96-2.296 1.484 0 1.988 1.036 1.988 2.296z" fill="url(#paint3_linear_51_997)"/><path d="M169 55c0 9.4 7.6 17 17 17s17-7.6 17-17-7.6-17-17-17-17 7.6-17 17z" fill="#131517"/><path d="M186 75c-11 0-20-9-20-20s9-20 20-20c4.7 0 9.3 1.7 12.9 4.8l-2.6 3c-2.8-2.5-6.5-3.8-10.3-3.8-8.8 0-16 7.2-16 16s7.2 16 16 16v4z" fill="#606571"/><path d="M189 43l-8-6 8-6v12z" fill="#ffc619"/><path d="M173 55c0 .6-.4 1-1 1h-3v-2h3c.6 0 1 .4 1 1zm13 13c-.6 0-1 .4-1 1v3h2v-3c0-.6-.4-1-1-1zm14-14c-.6 0-1 .4-1 1s.4 1 1 1h3v-2h-3z" fill="#fff"/><path d="M186 75c-11 0-20-9-20-20 0-4.7 1.7-9.3 4.8-12.9l3 2.6c-2.5 2.8-3.8 6.5-3.8 10.3 0 8.8 7.2 16 16 16s16-7.2 16-16-7.2-16-16-16v-4c11 0 20 9 20 20s-9 20-20 20z" fill="#ffc619"/><path d="M185 61h-8v-1.8l3.8-4c.9-1.1 1.4-1.9 1.4-2.5 0-.5-.1-.9-.3-1.2-.2-.3-.5-.4-1-.4-.4 0-.8.2-1 .5-.3.4-.4.8-.4 1.3H177c0-.7.2-1.4.5-2 .4-.6.9-1.1 1.5-1.4.6-.3 1.1-.5 1.9-.5 1.3 0 2.3.3 3 .9.7.6 1 1.4 1 2.5 0 .5-.1.9-.3 1.4-.2.4-.4.9-.8 1.4-.4.5-1 1.1-1.8 1.9l-1.4 1.9h4.4v2zm8.8-4h1.2v2h-1.2v2H191v-2h-4.6l-.2-1.6L191 49h2.8v8zm-5 0h2.2v-4.4l-.2.3-2 4.1z" fill="#fff"/><defs><filter id="filter0_d_51_997" x="12" y="12" width="348" height="348" filterUnits="userSpaceOnUse" color-interpolation-filters="sRGB"><feFlood flood-opacity="0" result="BackgroundImageFix"/><feColorMatrix in="SourceAlpha" values="0 0 0 0 0 0 0 0 0 0 0 0 0 0 0 0 0 0 127 0" result="hardAlpha"/><feOffset dy="17"/><feGaussianBlur stdDeviation="26"/><feComposite in2="hardAlpha" operator="out"/><feColorMatrix values="0 0 0 0 0 0 0 0 0 0 0 0 0 0 0 0 0 0 0.58 0"/><feBlend in2="BackgroundImageFix" result="effect1_dropShadow_51_997"/><feBlend in="SourceGraphic" in2="effect1_dropShadow_51_997" result="shape"/></filter><filter id="filter1_d_51_997" x="12" y="12" width="348" height="348" filterUnits="userSpaceOnUse" color-interpolation-filters="sRGB"><feFlood flood-opacity="0" result="BackgroundImageFix"/><feColorMatrix in="SourceAlpha" values="0 0 0 0 0 0 0 0 0 0 0 0 0 0 0 0 0 0 127 0" result="hardAlpha"/><feOffset dy="17"/><feGaussianBlur stdDeviation="26"/><feComposite in2="hardAlpha" operator="out"/><feColorMatrix values="0 0 0 0 0 0 0 0 0 0 0 0 0 0 0 0 0 0 0.58 0"/><feBlend in2="BackgroundImageFix" result="effect1_dropShadow_51_997"/><feBlend in="SourceGraphic" in2="effect1_dropShadow_51_997" result="shape"/></filter><filter id="filter2_d_51_997" x="0" y="0" width="373" height="373" filterUnits="userSpaceOnUse" color-interpolation-filters="sRGB"><feFlood flood-opacity="0" result="BackgroundImageFix"/><feColorMatrix in="SourceAlpha" values="0 0 0 0 0 0 0 0 0 0 0 0 0 0 0 0 0 0 127 0" result="hardAlpha"/><feOffset dy="17"/><feGaussianBlur stdDeviation="26"/><feComposite in2="hardAlpha" operator="out"/><feColorMatrix values="0 0 0 0 0 0 0 0 0 0 0 0 0 0 0 0 0 0 0.58 0"/><feBlend in2="BackgroundImageFix" result="effect1_dropShadow_51_997"/><feBlend in="SourceGraphic" in2="effect1_dropShadow_51_997" result="shape"/></filter><filter id="filter3_d_51_997" x="38" y="39" width="296" height="296" filterUnits="userSpaceOnUse" color-interpolation-filters="sRGB"><feFlood flood-opacity="0" result="BackgroundImageFix"/><feColorMatrix in="SourceAlpha" values="0 0 0 0 0 0 0 0 0 0 0 0 0 0 0 0 0 0 127 0" result="hardAlpha"/><feOffset dy="17"/><feGaussianBlur stdDeviation="26"/><feComposite in2="hardAlpha" operator="out"/><feColorMatrix values="0 0 0 0 0 0 0 0 0 0 0 0 0 0 0 0 0 0 0.58 0"/><feBlend in2="BackgroundImageFix" result="effect1_dropShadow_51_997"/><feBlend in="SourceGraphic" in2="effect1_dropShadow_51_997" result="shape"/></filter><radialGradient id="paint0_angular_51_997" cx="0" cy="0" r="1" gradientUnits="userSpaceOnUse" gradientTransform="matrix(0 122 -122 0 186 169)"><stop offset=".489" stop-color="#f69020" stop-opacity="0"/><stop offset=".503" stop-color="#ffc619"/></radialGradient><radialGradient id="paint1_angular_51_997" cx="0" cy="0" r="1" gradientUnits="userSpaceOnUse" gradientTransform="rotate(90 8.5 178) scale(134.5)"><stop offset=".489" stop-color="#ffc619" stop-opacity="0"/><stop offset=".503" stop-color="#ffc619"/></radialGradient><radialGradient id="paint2_angular_51_997" cx="0" cy="0" r="1" gradientUnits="userSpaceOnUse" gradientTransform="rotate(90 8 178) scale(96)"><stop offset=".489" stop-color="#f69020" stop-opacity="0"/><stop offset=".503" stop-color="#f69020"/></radialGradient><linearGradient id="paint3_linear_51_997" x1="186" y1="167.619" x2="186" y2="207.211" gradientUnits="userSpaceOnUse"><stop stop-color="#ffc619"/><stop offset="1" stop-color="#f69020"/></linearGradient></defs></svg>