<svg width="68" height="65" viewBox="0 0 68 65" fill="none" xmlns="http://www.w3.org/2000/svg">
<path d="M46.58 0.8475L45.815 1.995L33.745 19.3775L23.12 22.5225L23.0775 22.565H23.035C21.6909 23.0697 20.6496 23.9516 19.8475 25.0725L19.805 25.115V25.1575L10.625 39.31L10.285 38.205L1.35996 40.8825L0.0849609 41.3075L0.467461 42.5825L6.58746 63.11L6.96996 64.4275L8.28746 64.045L15.895 61.7075L17.2125 61.325L16.7875 60.05L16.0225 57.4575L26.69 55.0775C29.9678 54.3338 32.9534 52.5647 35.0625 49.85L35.5725 49.2125L40.715 52.825L41.82 53.6325L42.585 52.485L67.235 16.87L68 15.765L66.8525 14.9575L47.685 1.655L46.58 0.8475ZM47.26 4.63L64.2175 16.445L54.485 30.5125C55.7334 26.5334 53.8209 21.7681 49.7675 18.9525C49.7568 18.9472 49.7781 18.9153 49.7675 18.91C49.7568 18.8994 49.7356 18.9206 49.725 18.91C47.3609 17.2419 44.5506 16.5459 41.99 16.785C40.5237 16.9231 39.1478 17.3906 37.9525 18.145L47.26 4.63ZM52.955 12.705C52.2112 12.6997 51.494 13.0662 51.0425 13.725C50.32 14.7769 50.5856 16.19 51.6375 16.9125C52.6893 17.635 54.145 17.3694 54.8675 16.3175C55.59 15.2656 55.3243 13.8525 54.2725 13.13C53.8793 12.8591 53.4012 12.7103 52.955 12.705ZM42.33 19.4625C44.2106 19.2925 46.309 19.8078 48.1525 21.12L48.195 21.1625C52.0465 23.8134 53.194 28.3078 51.255 31.1075H51.2125C50.235 32.6163 48.604 33.4344 46.58 33.53C46.649 31.9734 46.0965 30.4222 44.88 29.28C44.8693 29.2694 44.8481 29.2906 44.8375 29.28C42.9834 27.4472 40.0934 27.1391 37.9525 28.5575C36.6562 26.2253 36.5606 23.6912 37.825 21.885C38.7918 20.4878 40.4493 19.6325 42.33 19.4625ZM31.3225 22.9475L24.82 33.19L24.0975 34.38L25.2875 35.06L29.6225 37.6525L30.43 38.1625L31.195 37.525L38.08 31.9575C38.4306 31.8459 38.7175 31.6016 38.8875 31.2775L39.2275 31.0225C40.3112 30.1194 41.9687 30.1938 42.9675 31.1925V31.235H43.01C44.1256 32.255 44.2265 33.8488 43.265 35.1025L32.9375 48.15C31.2375 50.3334 28.8043 51.8263 26.095 52.4425L15.2575 54.865L11.4325 42.03L11.8575 41.86L12.325 41.69L12.58 41.3075L22.0575 26.6875C22.594 25.9331 23.1465 25.4709 23.9275 25.1575C23.9593 25.1469 23.9806 25.1256 24.0125 25.115L31.3225 22.9475ZM34.425 23.1175C33.899 25.4816 34.4303 28.0475 35.785 30.3L30.2175 34.8475L27.88 33.445L34.425 23.1175ZM51.765 34.465L41.14 49.85L37.23 47.0875L45.39 36.8025V36.76H45.4325C45.56 36.5953 45.6662 36.4253 45.7725 36.25C47.9825 36.3138 50.1128 35.7453 51.765 34.465ZM8.45746 41.5625L13.8125 59.54L8.79746 61.07L3.44246 43.135L8.45746 41.5625Z" fill="url(#paint0_linear_1109_12)"/>
<defs>
<linearGradient id="paint0_linear_1109_12" x1="34.0425" y1="0.8475" x2="34.0425" y2="64.4275" gradientUnits="userSpaceOnUse">
<stop stop-color="#FFC619"/>
<stop offset="0.520833" stop-color="#F69020"/>
<stop offset="1" stop-color="#EA422A"/>
</linearGradient>
</defs>
</svg>
