<svg width="17" height="17" viewBox="0 0 17 17" fill="none" xmlns="http://www.w3.org/2000/svg">
<path d="M0.899978 0.899978V5.83998C0.898554 5.94069 0.91716 6.04067 0.954714 6.13413C0.992269 6.22759 1.04802 6.31265 1.11874 6.38437C1.18945 6.45609 1.27371 6.51304 1.36663 6.55191C1.45954 6.59078 1.55926 6.6108 1.65998 6.6108C1.7607 6.6108 1.86041 6.59078 1.95333 6.55191C2.04624 6.51304 2.13051 6.45609 2.20122 6.38437C2.27193 6.31265 2.32769 6.22759 2.36524 6.13413C2.4028 6.04067 2.4214 5.94069 2.41998 5.83998V3.49467L6.63263 7.70732C6.70266 7.78026 6.78655 7.8385 6.87936 7.87861C6.97218 7.91873 7.07207 7.93992 7.17318 7.94095C7.27429 7.94198 7.37459 7.92283 7.46821 7.88461C7.56182 7.84639 7.64687 7.78987 7.71837 7.71837C7.78987 7.64687 7.84639 7.56182 7.88461 7.46821C7.92283 7.37459 7.94198 7.27429 7.94095 7.17318C7.93992 7.07207 7.91873 6.97218 7.87861 6.87936C7.8385 6.78655 7.78026 6.70266 7.70732 6.63263L3.49467 2.41998H5.83998C5.94069 2.4214 6.04067 2.4028 6.13413 2.36524C6.22759 2.32769 6.31265 2.27193 6.38437 2.20122C6.45609 2.13051 6.51304 2.04624 6.55191 1.95333C6.59078 1.86041 6.6108 1.7607 6.6108 1.65998C6.6108 1.55926 6.59078 1.45954 6.55191 1.36663C6.51304 1.27371 6.45609 1.18945 6.38437 1.11874C6.31265 1.04802 6.22759 0.992269 6.13413 0.954714C6.04067 0.91716 5.94069 0.898554 5.83998 0.899978H0.899978ZM11.16 0.899978C11.0593 0.898554 10.9593 0.91716 10.8658 0.954714C10.7724 0.992269 10.6873 1.04802 10.6156 1.11874C10.5439 1.18945 10.4869 1.27371 10.448 1.36663C10.4092 1.45954 10.3892 1.55926 10.3892 1.65998C10.3892 1.7607 10.4092 1.86041 10.448 1.95333C10.4869 2.04624 10.5439 2.13051 10.6156 2.20122C10.6873 2.27193 10.7724 2.32769 10.8658 2.36524C10.9593 2.4028 11.0593 2.4214 11.16 2.41998H13.4734L9.29041 6.63486C9.21781 6.7052 9.15997 6.78932 9.12028 6.88229C9.08059 6.97527 9.05985 7.07522 9.05926 7.17631C9.05867 7.27739 9.07825 7.37758 9.11686 7.471C9.15547 7.56443 9.21232 7.64922 9.2841 7.7204C9.35587 7.79158 9.44113 7.84773 9.53487 7.88556C9.62861 7.9234 9.72896 7.94215 9.83004 7.94072C9.93112 7.9393 10.0309 7.91772 10.1235 7.87726C10.2162 7.83681 10.2998 7.77827 10.3695 7.70509L14.58 3.46275V5.83998C14.5786 5.94069 14.5972 6.04067 14.6347 6.13413C14.6723 6.22759 14.728 6.31265 14.7987 6.38437C14.8694 6.45609 14.9537 6.51304 15.0466 6.55191C15.1395 6.59078 15.2393 6.6108 15.34 6.6108C15.4407 6.6108 15.5404 6.59078 15.6333 6.55191C15.7262 6.51304 15.8105 6.45609 15.8812 6.38437C15.9519 6.31265 16.0077 6.22759 16.0452 6.13413C16.0828 6.04067 16.1014 5.94069 16.1 5.83998V0.899978H11.16ZM7.1581 9.06256C6.96071 9.06766 6.77306 9.14937 6.63486 9.29041L2.41998 13.4734V11.16C2.4214 11.0593 2.4028 10.9593 2.36524 10.8658C2.32769 10.7724 2.27193 10.6873 2.20122 10.6156C2.13051 10.5439 2.04624 10.4869 1.95333 10.448C1.86041 10.4092 1.7607 10.3892 1.65998 10.3892C1.55926 10.3892 1.45954 10.4092 1.36663 10.448C1.27371 10.4869 1.18945 10.5439 1.11874 10.6156C1.04802 10.6873 0.992269 10.7724 0.954714 10.8658C0.91716 10.9593 0.898554 11.0593 0.899978 11.16V16.1H5.83998C5.94069 16.1014 6.04067 16.0828 6.13413 16.0452C6.22759 16.0077 6.31265 15.9519 6.38437 15.8812C6.45609 15.8105 6.51304 15.7262 6.55191 15.6333C6.59078 15.5404 6.6108 15.4407 6.6108 15.34C6.6108 15.2393 6.59078 15.1395 6.55191 15.0466C6.51304 14.9537 6.45609 14.8694 6.38437 14.7987C6.31265 14.728 6.22759 14.6723 6.13413 14.6347C6.04067 14.5972 5.94069 14.5786 5.83998 14.58H3.46275L7.70509 10.3695C7.81536 10.2632 7.89092 10.1261 7.9219 9.97609C7.95287 9.82609 7.93781 9.67023 7.87868 9.52894C7.81954 9.38765 7.71911 9.26753 7.59052 9.1843C7.46194 9.10108 7.31122 9.05864 7.1581 9.06256ZM9.82181 9.06256C9.67069 9.06274 9.52305 9.10798 9.39775 9.19248C9.27246 9.27698 9.1752 9.39692 9.1184 9.53696C9.06161 9.67701 9.04784 9.83081 9.07888 9.97871C9.10991 10.1266 9.18433 10.2619 9.29263 10.3673L13.5053 14.58H11.16C11.0593 14.5786 10.9593 14.5972 10.8658 14.6347C10.7724 14.6723 10.6873 14.728 10.6156 14.7987C10.5439 14.8694 10.4869 14.9537 10.448 15.0466C10.4092 15.1395 10.3892 15.2393 10.3892 15.34C10.3892 15.4407 10.4092 15.5404 10.448 15.6333C10.4869 15.7262 10.5439 15.8105 10.6156 15.8812C10.6873 15.9519 10.7724 16.0077 10.8658 16.0452C10.9593 16.0828 11.0593 16.1014 11.16 16.1H16.1V11.16C16.1014 11.0593 16.0828 10.9593 16.0452 10.8658C16.0077 10.7724 15.9519 10.6873 15.8812 10.6156C15.8105 10.5439 15.7262 10.4869 15.6333 10.448C15.5404 10.4092 15.4407 10.3892 15.34 10.3892C15.2393 10.3892 15.1395 10.4092 15.0466 10.448C14.9537 10.4869 14.8694 10.5439 14.7987 10.6156C14.728 10.6873 14.6723 10.7724 14.6347 10.8658C14.5972 10.9593 14.5786 11.0593 14.58 11.16V13.5053L10.3673 9.29263C10.2964 9.21974 10.2116 9.16182 10.1179 9.1223C10.0242 9.08278 9.92351 9.06246 9.82181 9.06256Z" fill="white"/>
</svg>
