<svg width="21" height="17" viewBox="0 0 21 17" fill="none" xmlns="http://www.w3.org/2000/svg">
<path d="M11.3006 0.0999756C7.57641 0.0999756 6.19336 2.97763 7.25812 5.4156C7.12523 5.50419 6.91195 5.78146 6.95625 6.26873C7.04484 7.15466 7.44352 7.3663 7.665 7.4106C7.75359 8.25224 8.2868 9.23333 8.59688 9.36623C8.59688 9.94208 8.58867 10.4244 8.54437 11.0462C7.86516 12.8296 3.52406 12.4161 2.96625 15.6137C2.94164 15.7532 3.08602 16.06 3.37312 16.06H17.64C18.0666 16.06 18.0584 15.745 18.0337 15.6006C17.4661 12.4161 13.1348 12.8279 12.4556 11.0462C12.4113 10.3801 12.4031 9.94208 12.4031 9.36623C12.7132 9.23333 13.207 8.20794 13.2956 7.4106C13.5171 7.4106 13.8715 7.14318 14.0044 6.2556C14.0487 5.76833 13.8666 5.4599 13.6894 5.4156C14.3981 4.52966 14.2702 0.900601 11.655 0.900601L11.3006 0.0999756ZM6.36562 2.19998C3.5618 2.24755 2.33297 4.4788 3.17625 6.38685C3.08602 6.43115 2.90883 6.66576 2.95312 7.06935C3.04336 7.78794 3.31078 7.96185 3.49125 7.96185C3.57984 8.63451 3.97687 9.38919 4.2 9.52373C4.2 9.97162 4.20492 9.95849 4.16062 10.495C3.79641 11.6434 0 11.5581 0 14.38C0 14.38 0 14.8 0.42 14.8H2.32312C2.96461 12.9854 4.70859 12.2865 6.02437 11.7681C6.74953 11.4826 7.49273 11.1939 7.7175 10.8362C7.74211 10.4458 7.75523 10.1144 7.75687 9.74685C7.3582 9.29076 7.06125 8.58037 6.91687 7.97498C6.57562 7.72232 6.20648 7.23669 6.11625 6.33435C6.07687 5.90615 6.16711 5.55013 6.31312 5.27123C5.98008 4.23599 6.00141 3.15482 6.36562 2.19998ZM15.96 2.19998C15.558 2.19998 15.0839 2.23279 14.6344 2.30498C14.9707 3.29099 14.9838 4.46896 14.6869 5.3106C14.8181 5.59935 14.8788 5.95044 14.8444 6.33435L14.8312 6.3606V6.38685C14.7066 7.21208 14.403 7.71412 14.0437 7.9881C13.9076 8.55576 13.6303 9.27271 13.2431 9.73373C13.2448 10.0947 13.2579 10.4195 13.2825 10.8362C13.5073 11.1939 14.2521 11.4826 14.9756 11.7681C16.2898 12.2849 18.0337 12.9854 18.6769 14.8H20.58C21 14.8 21 14.3931 21 14.3931C21.0016 11.1447 17.4054 11.9141 16.8656 10.4293C16.8197 9.93388 16.8131 9.97982 16.8131 9.48435C17.0379 9.34982 17.4513 8.59349 17.4956 7.96185C17.6761 7.96185 17.9435 7.77646 18.0337 7.05623C18.078 6.69693 17.9452 6.43115 17.8106 6.38685C18.352 5.66662 18.2634 2.82998 16.2356 2.82998L15.96 2.19998Z" fill="white"/>
</svg>
