<svg width="278" height="52" viewBox="0 0 278 52" fill="none" xmlns="http://www.w3.org/2000/svg">
<path fill-rule="evenodd" clip-rule="evenodd" d="M190.628 50.6012L195.598 19.3102L210.521 51.4067L225.443 19.3102L230.413 50.6012H236.042L228.035 0.187744L210.521 37.9475L193.006 0.187744L185 50.6012H190.628ZM31.9925 1.29053L19.9166 23.8639L35.0138 50.304H28.6283L16.8211 29.6546L13.5774 23.9468L0.713623 1.29053H7.09916L16.6728 18.1562L25.6997 1.29053H31.9925ZM76.3574 50.304L54.4019 1.29053V13.5849L62.5947 32.0482H48.3315V37.5719H64.9302L70.324 50.304H76.3574ZM277.385 50.304L255.43 1.29053V13.5849L263.623 32.0482H249.36V37.5719H265.958L271.352 50.304H277.385ZM131.612 1.29053H126.051V50.304H131.612V1.29053ZM144.93 50.304L171.633 6.81421H145.411V1.29053H181.515L151.435 50.304H144.93ZM95.5523 23.2023C99.9876 23.2023 103.596 19.6175 103.596 15.2117C103.596 10.8059 99.9876 7.22158 95.5523 7.22158H89.6646V1.29053H95.5523C103.28 1.29053 109.567 7.53532 109.567 15.2117C109.567 22.0806 104.533 27.8031 97.9376 28.9316L112.733 50.304H105.487L86.7249 23.2023H95.5523Z" fill="url(#paint0_linear_1112_44)"/>
<defs>
<linearGradient id="paint0_linear_1112_44" x1="0.713586" y1="25.7972" x2="277.385" y2="25.7972" gradientUnits="userSpaceOnUse">
<stop stop-color="#EA422A"/>
<stop offset="0.0947882" stop-color="#EC5128"/>
<stop offset="0.523442" stop-color="#F69020"/>
<stop offset="0.836995" stop-color="#FDB71B"/>
<stop offset="1" stop-color="#FFC619"/>
</linearGradient>
</defs>
</svg>
